<?xml version="1.0" encoding="UTF-8"?>
<svg xmlns="http://www.w3.org/2000/svg" xmlns:xlink="http://www.w3.org/1999/xlink" width="40pt" height="40pt" viewBox="0 0 40 40" version="1.1">
<g id="surface1">
<path style=" stroke:none;fill-rule:nonzero;fill:rgb(0%,0%,0%);fill-opacity:1;" d="M 20 39.800781 L 19.3125 38.808594 C 18.796875 38.058594 6.667969 20.414062 6.667969 13.332031 C 6.667969 5.980469 12.648438 0 20 0 C 27.351562 0 33.332031 5.980469 33.332031 13.332031 C 33.332031 20.414062 21.203125 38.058594 20.6875 38.808594 Z M 20 1.667969 C 13.566406 1.667969 8.332031 6.898438 8.332031 13.332031 C 8.332031 18.988281 17.402344 32.960938 20 36.84375 C 22.597656 32.960938 31.667969 18.988281 31.667969 13.332031 C 31.667969 6.898438 26.433594 1.667969 20 1.667969 Z M 20 1.667969 "/>
<path style=" stroke:none;fill-rule:nonzero;fill:rgb(0%,0%,0%);fill-opacity:1;" d="M 20 19.167969 C 16.785156 19.167969 14.167969 16.550781 14.167969 13.332031 C 14.167969 10.117188 16.785156 7.5 20 7.5 C 23.214844 7.5 25.832031 10.117188 25.832031 13.332031 C 25.832031 16.550781 23.214844 19.167969 20 19.167969 Z M 20 9.167969 C 17.703125 9.167969 15.832031 11.035156 15.832031 13.332031 C 15.832031 15.628906 17.703125 17.5 20 17.5 C 22.296875 17.5 24.167969 15.628906 24.167969 13.332031 C 24.167969 11.035156 22.296875 9.167969 20 9.167969 Z M 20 9.167969 "/>
</g>
</svg>
