<?xml version="1.0" encoding="UTF-8"?>
<!DOCTYPE svg PUBLIC "-//W3C//DTD SVG 1.1//EN" "http://www.w3.org/Graphics/SVG/1.1/DTD/svg11.dtd">
<svg version="1.2" width="140mm" height="92mm" viewBox="0 0 14000 9200" preserveAspectRatio="xMidYMid" fill-rule="evenodd" stroke-width="28.222" stroke-linejoin="round" xmlns="http://www.w3.org/2000/svg" xmlns:ooo="http://xml.openoffice.org/svg/export" xmlns:xlink="http://www.w3.org/1999/xlink" xmlns:presentation="http://sun.com/xmlns/staroffice/presentation" xmlns:smil="http://www.w3.org/2001/SMIL20/" xmlns:anim="urn:oasis:names:tc:opendocument:xmlns:animation:1.0" xml:space="preserve">
 <defs class="ClipPathGroup">
  <clipPath id="presentation_clip_path" clipPathUnits="userSpaceOnUse">
   <rect x="0" y="0" width="14000" height="9200"/>
  </clipPath>
  <clipPath id="presentation_clip_path_shrink" clipPathUnits="userSpaceOnUse">
   <rect x="14" y="9" width="13972" height="9182"/>
  </clipPath>
 </defs>
 <defs class="TextShapeIndex">
  <g ooo:slide="id1" ooo:id-list="id3 id4 id5 id6"/>
 </defs>
 <defs class="EmbeddedBulletChars">
  <g id="bullet-char-template-57356" transform="scale(0.00048828125,-0.00048828125)">
   <path d="M 580,1141 L 1163,571 580,0 -4,571 580,1141 Z"/>
  </g>
  <g id="bullet-char-template-57354" transform="scale(0.00048828125,-0.00048828125)">
   <path d="M 8,1128 L 1137,1128 1137,0 8,0 8,1128 Z"/>
  </g>
  <g id="bullet-char-template-10146" transform="scale(0.00048828125,-0.00048828125)">
   <path d="M 174,0 L 602,739 174,1481 1456,739 174,0 Z M 1358,739 L 309,1346 659,739 1358,739 Z"/>
  </g>
  <g id="bullet-char-template-10132" transform="scale(0.00048828125,-0.00048828125)">
   <path d="M 2015,739 L 1276,0 717,0 1260,543 174,543 174,936 1260,936 717,1481 1274,1481 2015,739 Z"/>
  </g>
  <g id="bullet-char-template-10007" transform="scale(0.00048828125,-0.00048828125)">
   <path d="M 0,-2 C -7,14 -16,27 -25,37 L 356,567 C 262,823 215,952 215,954 215,979 228,992 255,992 264,992 276,990 289,987 310,991 331,999 354,1012 L 381,999 492,748 772,1049 836,1024 860,1049 C 881,1039 901,1025 922,1006 886,937 835,863 770,784 769,783 710,716 594,584 L 774,223 C 774,196 753,168 711,139 L 727,119 C 717,90 699,76 672,76 641,76 570,178 457,381 L 164,-76 C 142,-110 111,-127 72,-127 30,-127 9,-110 8,-76 1,-67 -2,-52 -2,-32 -2,-23 -1,-13 0,-2 Z"/>
  </g>
  <g id="bullet-char-template-10004" transform="scale(0.00048828125,-0.00048828125)">
   <path d="M 285,-33 C 182,-33 111,30 74,156 52,228 41,333 41,471 41,549 55,616 82,672 116,743 169,778 240,778 293,778 328,747 346,684 L 369,508 C 377,444 397,411 428,410 L 1163,1116 C 1174,1127 1196,1133 1229,1133 1271,1133 1292,1118 1292,1087 L 1292,965 C 1292,929 1282,901 1262,881 L 442,47 C 390,-6 338,-33 285,-33 Z"/>
  </g>
  <g id="bullet-char-template-9679" transform="scale(0.00048828125,-0.00048828125)">
   <path d="M 813,0 C 632,0 489,54 383,161 276,268 223,411 223,592 223,773 276,916 383,1023 489,1130 632,1184 813,1184 992,1184 1136,1130 1245,1023 1353,916 1407,772 1407,592 1407,412 1353,268 1245,161 1136,54 992,0 813,0 Z"/>
  </g>
  <g id="bullet-char-template-8226" transform="scale(0.00048828125,-0.00048828125)">
   <path d="M 346,457 C 273,457 209,483 155,535 101,586 74,649 74,723 74,796 101,859 155,911 209,963 273,989 346,989 419,989 480,963 531,910 582,859 608,796 608,723 608,648 583,586 532,535 482,483 420,457 346,457 Z"/>
  </g>
  <g id="bullet-char-template-8211" transform="scale(0.00048828125,-0.00048828125)">
   <path d="M -4,459 L 1135,459 1135,606 -4,606 -4,459 Z"/>
  </g>
  <g id="bullet-char-template-61548" transform="scale(0.00048828125,-0.00048828125)">
   <path d="M 173,740 C 173,903 231,1043 346,1159 462,1274 601,1332 765,1332 928,1332 1067,1274 1183,1159 1299,1043 1357,903 1357,740 1357,577 1299,437 1183,322 1067,206 928,148 765,148 601,148 462,206 346,322 231,437 173,577 173,740 Z"/>
  </g>
 </defs>
 <defs class="TextEmbeddedBitmaps"/>
 <g>
  <g id="id2" class="Master_Slide">
   <g id="bg-id2" class="Background"/>
   <g id="bo-id2" class="BackgroundObjects"/>
  </g>
 </g>
 <g class="SlideGroup">
  <g>
   <g id="container-id1">
    <g id="id1" class="Slide" clip-path="url(#presentation_clip_path)">
     <g class="Page">
      <g class="com.sun.star.drawing.PolyPolygonShape">
       <g id="id3">
        <rect class="BoundingBox" stroke="none" fill="none" x="-35" y="-35" width="20534" height="14184"/>
       </g>
      </g>
      <g class="com.sun.star.drawing.ClosedBezierShape">
       <g id="id4">
        <rect class="BoundingBox" stroke="none" fill="none" x="0" y="0" width="13926" height="9114"/>
        <path fill="rgb(35,32,32)" stroke="none" d="M 13925,4107 L 12076,0 10073,900 10207,1200 C 9780,1337 9310,1369 8834,1291 8524,1242 8210,1242 7903,1291 7659,1330 7416,1404 7187,1507 7081,1552 6978,1609 6876,1672 L 5984,2110 C 5846,2085 5708,2068 5571,2060 5084,2039 4625,1912 4230,1690 L 4421,1429 2632,145 0,3800 1782,5084 1972,4823 C 2311,5126 2575,5522 2748,5977 2762,6016 2777,6051 2794,6090 L 2568,6400 C 2343,6714 2413,7155 2727,7381 2829,7455 2942,7494 3059,7508 3059,7543 3062,7578 3066,7614 3098,7797 3196,7960 3348,8072 3468,8161 3613,8207 3757,8207 3779,8207 3796,8207 3817,8203 3856,8365 3951,8506 4089,8605 4212,8693 4357,8739 4498,8739 4572,8739 4646,8729 4717,8704 4766,8813 4844,8909 4943,8979 5063,9067 5207,9113 5352,9113 5391,9113 5430,9110 5465,9103 5652,9071 5814,8972 5924,8820 L 6065,8623 6739,9011 C 6858,9081 6993,9113 7120,9113 7328,9113 7529,9029 7670,8866 7748,8775 7804,8669 7832,8552 7970,8598 8114,8609 8263,8584 8503,8545 8711,8415 8852,8217 8944,8087 9004,7935 9018,7780 9025,7709 9025,7638 9014,7571 9261,7557 9497,7448 9660,7250 9797,7085 9868,6883 9868,6672 9921,6675 9970,6672 10023,6661 10217,6629 10387,6524 10499,6365 10595,6231 10655,6076 10672,5910 10672,5903 10672,5892 10676,5885 10725,5821 10771,5754 10813,5687 11071,5278 11406,4950 11791,4721 L 11921,5006 13925,4107 Z M 13272,3860 L 12172,4354 10729,1147 11829,653 13272,3860 Z M 2745,836 L 3726,1542 1792,4223 1669,4396 688,3690 2745,836 Z M 2971,6689 L 3278,6262 3295,6238 C 3302,6227 3313,6217 3320,6210 3330,6203 3338,6192 3348,6188 3348,6188 3352,6188 3352,6185 3362,6178 3373,6174 3383,6167 L 3387,6167 C 3397,6164 3412,6160 3426,6157 L 3429,6157 C 3436,6157 3447,6153 3454,6153 3457,6153 3461,6153 3461,6153 3468,6153 3479,6153 3486,6157 3489,6157 3493,6157 3496,6157 3503,6157 3510,6160 3517,6160 3521,6160 3521,6160 3525,6164 3532,6167 3542,6171 3549,6174 3553,6174 3553,6178 3556,6178 3563,6181 3574,6188 3581,6192 3634,6231 3666,6291 3666,6354 3666,6365 3666,6372 3666,6382 3666,6393 3662,6404 3662,6411 3655,6435 3644,6460 3630,6481 L 3306,6933 C 3239,7025 3108,7046 3016,6979 2925,6912 2904,6781 2971,6689 Z M 3641,7670 C 3595,7638 3567,7589 3556,7536 3546,7480 3560,7427 3592,7381 L 4318,6372 C 4350,6326 4399,6298 4452,6287 4463,6287 4474,6284 4484,6284 L 4488,6284 C 4498,6284 4505,6284 4516,6287 L 4519,6287 C 4526,6287 4537,6291 4544,6294 L 4548,6294 C 4558,6298 4565,6301 4572,6305 4576,6305 4576,6308 4579,6308 4586,6312 4597,6319 4604,6322 4650,6354 4678,6404 4689,6457 4692,6474 4692,6492 4689,6513 4689,6527 4685,6545 4678,6559 4678,6562 4678,6566 4675,6566 4671,6569 4671,6576 4668,6580 4668,6584 4664,6587 4664,6591 4661,6594 4657,6601 4657,6605 4653,6608 4653,6612 4650,6615 L 3923,7624 C 3891,7670 3842,7698 3789,7709 3740,7716 3683,7706 3641,7670 Z M 4378,8203 C 4332,8171 4304,8122 4294,8069 4283,8012 4297,7960 4329,7914 L 5056,6905 C 5063,6894 5070,6887 5080,6876 5084,6873 5084,6873 5087,6869 5094,6862 5105,6855 5116,6848 5119,6848 5119,6845 5123,6845 5130,6841 5140,6834 5151,6831 5154,6831 5154,6831 5158,6827 5169,6823 5179,6820 5193,6816 5197,6816 5200,6816 5204,6813 5207,6813 5207,6813 5211,6813 5218,6813 5221,6813 5229,6813 L 5232,6813 C 5243,6813 5253,6813 5260,6816 L 5264,6816 C 5274,6816 5281,6820 5292,6823 L 5296,6823 C 5306,6827 5313,6831 5324,6834 5324,6834 5327,6834 5327,6838 5334,6841 5345,6848 5352,6852 5366,6862 5380,6876 5391,6891 5419,6926 5437,6968 5437,7014 5437,7025 5437,7032 5437,7042 5433,7060 5430,7077 5426,7095 5426,7099 5423,7099 5423,7102 5416,7116 5408,7130 5401,7145 L 4675,8154 C 4601,8249 4470,8270 4378,8203 Z M 5387,8612 C 5331,8623 5278,8609 5232,8577 5186,8545 5158,8496 5147,8443 5137,8386 5151,8334 5183,8288 L 5507,7836 C 5511,7829 5518,7825 5521,7822 5525,7818 5532,7811 5535,7808 5539,7804 5546,7801 5553,7794 5557,7790 5564,7787 5567,7783 5574,7780 5581,7776 5588,7773 5592,7769 5599,7769 5603,7765 5617,7762 5627,7758 5641,7755 5652,7755 5662,7751 5673,7751 5677,7751 5677,7751 5680,7751 5691,7751 5698,7751 5708,7755 5712,7755 5712,7755 5715,7755 5722,7755 5733,7758 5740,7762 L 5744,7762 C 5751,7765 5761,7769 5768,7773 5772,7773 5772,7776 5775,7776 5782,7780 5793,7787 5800,7790 5860,7833 5892,7907 5885,7981 5881,8016 5867,8051 5846,8083 L 5521,8535 C 5490,8573 5444,8605 5387,8612 Z M 10182,5860 C 10175,5938 10147,6012 10101,6076 10062,6128 10009,6160 9946,6171 9882,6181 9819,6167 9769,6128 L 9494,5931 8954,5543 C 8845,5462 8690,5490 8608,5599 8527,5709 8555,5864 8665,5945 L 9205,6333 C 9296,6400 9356,6502 9374,6615 9388,6728 9356,6841 9282,6933 9148,7099 8887,7123 8704,6993 L 8651,6954 8647,6950 7980,6471 C 7871,6390 7716,6418 7635,6527 7554,6636 7582,6792 7691,6873 L 8358,7353 C 8474,7437 8538,7582 8524,7730 8517,7804 8492,7871 8450,7928 8386,8016 8291,8076 8182,8094 8072,8111 7963,8087 7875,8020 L 7550,7787 C 7550,7787 7546,7787 7546,7783 L 6915,7328 C 6806,7247 6650,7275 6569,7384 6488,7494 6516,7649 6626,7730 L 7257,8185 C 7314,8224 7345,8284 7352,8351 7359,8418 7338,8485 7296,8538 7222,8623 7091,8640 6982,8577 L 6336,8207 C 6340,8196 6343,8189 6347,8178 6347,8175 6350,8168 6350,8164 6354,8154 6358,8143 6358,8132 6358,8129 6361,8125 6361,8122 6365,8111 6365,8097 6368,8087 6368,8083 6368,8079 6372,8076 6375,8062 6375,8044 6379,8030 6403,7780 6294,7536 6089,7388 6072,7374 6054,7363 6036,7353 6029,7349 6026,7346 6019,7342 6005,7335 5994,7328 5980,7321 5973,7317 5966,7314 5959,7310 5945,7303 5934,7300 5920,7296 5913,7293 5906,7289 5899,7289 5895,7289 5888,7286 5885,7286 L 5885,7282 C 5888,7275 5892,7264 5895,7257 5899,7250 5899,7247 5902,7240 5906,7229 5909,7222 5909,7212 5909,7205 5913,7201 5913,7194 5917,7183 5917,7173 5920,7162 5920,7159 5924,7152 5924,7148 5927,7134 5927,7116 5931,7102 5955,6852 5846,6608 5641,6460 5624,6446 5603,6435 5585,6425 5578,6421 5574,6418 5567,6414 5553,6407 5539,6400 5525,6393 5518,6390 5514,6390 5507,6386 5493,6379 5479,6375 5461,6368 5454,6365 5451,6365 5444,6361 5426,6358 5412,6351 5394,6347 5391,6347 5384,6344 5380,6344 5363,6340 5345,6337 5327,6333 5324,6333 5320,6333 5317,6333 5299,6330 5278,6330 5260,6330 5257,6330 5253,6330 5253,6330 5232,6330 5211,6330 5193,6330 L 5190,6330 C 5186,6330 5183,6330 5179,6330 5179,6326 5176,6322 5176,6319 5172,6305 5169,6291 5165,6277 5165,6270 5162,6266 5158,6259 5154,6245 5147,6231 5140,6217 5140,6213 5137,6210 5137,6206 5130,6188 5123,6174 5112,6157 5109,6153 5109,6150 5105,6143 5098,6132 5091,6118 5084,6107 5080,6104 5077,6097 5073,6093 5063,6079 5056,6065 5045,6054 L 5042,6051 C 5031,6037 5017,6023 5006,6008 5003,6005 4999,6001 4996,5998 4985,5987 4975,5977 4964,5970 4960,5966 4957,5963 4950,5959 4936,5948 4922,5934 4904,5924 4752,5814 4565,5769 4382,5800 4361,5804 4339,5807 4322,5814 4318,5814 4311,5818 4308,5818 4290,5821 4272,5829 4255,5836 4251,5836 4251,5836 4248,5839 4230,5846 4209,5853 4191,5864 4188,5867 4181,5867 4177,5871 4163,5878 4145,5889 4131,5896 4128,5899 4124,5899 4121,5899 4103,5910 4089,5920 4071,5934 4068,5938 4064,5941 4061,5945 4054,5948 4050,5956 4043,5959 4033,5945 4022,5931 4011,5917 4008,5913 4004,5910 4001,5906 3994,5896 3983,5885 3976,5878 3973,5874 3969,5871 3962,5864 3951,5853 3944,5846 3934,5839 3930,5836 3927,5832 3920,5829 3906,5818 3891,5807 3877,5797 3860,5786 3842,5772 3824,5765 3821,5761 3814,5758 3810,5754 3796,5747 3782,5740 3768,5733 3764,5730 3757,5730 3754,5726 3736,5719 3722,5712 3704,5705 3697,5702 3687,5698 3680,5698 3669,5694 3662,5691 3652,5691 3637,5687 3620,5684 3606,5680 3595,5677 3588,5677 3577,5677 3567,5677 3556,5673 3546,5673 3539,5673 3528,5673 3521,5670 3507,5670 3489,5670 3475,5670 3465,5670 3450,5670 3440,5670 3429,5670 3422,5670 3412,5673 3397,5673 3383,5677 3373,5677 3369,5677 3362,5677 3359,5677 3355,5677 3352,5677 3348,5680 3334,5684 3320,5687 3302,5691 3295,5694 3285,5694 3278,5698 3263,5702 3249,5705 3239,5712 3228,5716 3218,5719 3207,5723 3200,5726 3193,5730 3182,5733 2974,5218 2660,4777 2265,4435 L 3941,2110 C 4272,2307 4643,2445 5038,2516 L 4826,4601 C 4795,4915 5024,5193 5334,5225 5627,5253 5909,5169 6135,4985 6361,4802 6502,4537 6534,4248 L 6590,3701 C 6876,3690 7155,3606 7402,3461 L 10016,5479 C 10034,5493 10044,5504 10055,5511 L 10058,5515 C 10062,5518 10069,5525 10073,5529 L 10080,5536 C 10083,5539 10083,5543 10087,5543 L 10094,5550 C 10097,5553 10101,5557 10104,5560 L 10125,5592 C 10136,5606 10143,5620 10147,5631 L 10150,5638 C 10154,5645 10157,5649 10157,5656 10161,5663 10164,5670 10164,5677 10168,5684 10168,5691 10171,5698 L 10178,5719 C 10182,5737 10185,5754 10189,5769 L 10189,5776 C 10189,5783 10189,5790 10192,5797 L 10192,5800 10192,5818 C 10185,5825 10185,5843 10182,5860 Z M 10503,5268 L 10499,5260 C 10489,5246 10482,5236 10475,5229 10475,5229 10475,5225 10471,5225 10468,5222 10464,5218 10461,5211 10457,5208 10457,5208 10454,5204 10447,5197 10443,5190 10436,5183 10425,5169 10411,5158 10401,5148 10397,5144 10394,5141 10390,5137 10387,5133 10387,5133 10383,5130 10379,5126 10379,5126 10376,5123 10358,5109 10341,5091 10316,5074 L 7409,2830 7257,2942 C 7007,3129 6700,3218 6386,3186 L 6139,3161 6036,4181 C 6019,4340 5941,4484 5818,4587 5694,4689 5535,4735 5377,4717 5334,4714 5306,4675 5310,4636 L 5486,2904 6749,2283 7098,2110 7120,2099 C 7211,2043 7299,1997 7388,1958 7578,1873 7779,1810 7980,1778 8234,1736 8495,1736 8753,1778 9325,1873 9893,1828 10408,1655 L 11583,4269 C 11166,4509 10796,4848 10503,5268 Z"/>
       </g>
      </g>
      <g class="com.sun.star.drawing.ClosedBezierShape">
       <g id="id5">
        <rect class="BoundingBox" stroke="none" fill="none" x="12113" y="3293" width="737" height="734"/>
        <path fill="rgb(35,32,32)" stroke="none" d="M 12443,4023 C 12457,4023 12468,4026 12482,4026 12567,4026 12648,3998 12711,3945 12786,3882 12835,3797 12846,3698 12856,3599 12828,3504 12764,3429 12701,3355 12616,3306 12517,3295 12418,3285 12323,3313 12249,3376 12174,3440 12125,3525 12114,3624 12097,3825 12245,4005 12443,4023 Z M 12362,3648 C 12365,3617 12379,3588 12404,3567 12425,3550 12450,3539 12478,3539 12482,3539 12485,3539 12489,3539 12521,3542 12549,3557 12570,3581 12591,3606 12598,3638 12595,3670 12591,3701 12577,3730 12552,3751 12528,3772 12496,3779 12464,3776 12404,3772 12358,3712 12362,3648 Z"/>
       </g>
      </g>
      <g class="com.sun.star.drawing.ClosedBezierShape">
       <g id="id6">
        <rect class="BoundingBox" stroke="none" fill="none" x="1099" y="3229" width="736" height="738"/>
        <path fill="rgb(35,32,32)" stroke="none" d="M 1832,3634 C 1853,3433 1705,3252 1504,3231 1405,3221 1309,3249 1235,3312 1161,3376 1112,3461 1101,3560 1080,3761 1228,3941 1430,3962 1444,3962 1454,3966 1468,3966 1656,3962 1815,3821 1832,3634 Z M 1352,3584 C 1355,3553 1369,3524 1394,3503 1415,3486 1440,3475 1468,3475 1472,3475 1475,3475 1479,3475 1543,3482 1592,3538 1585,3606 1578,3669 1521,3719 1454,3712 1391,3708 1345,3652 1352,3584 Z"/>
       </g>
      </g>
     </g>
    </g>
   </g>
  </g>
 </g>
</svg>