<?xml version="1.0" encoding="UTF-8"?>
<!DOCTYPE svg PUBLIC "-//W3C//DTD SVG 1.1//EN" "http://www.w3.org/Graphics/SVG/1.1/DTD/svg11.dtd">
<svg version="1.2" width="460.26mm" height="300.26mm" viewBox="0 0 46026 30026" preserveAspectRatio="xMidYMid" fill-rule="evenodd" stroke-width="28.222" stroke-linejoin="round" xmlns="http://www.w3.org/2000/svg" xmlns:ooo="http://xml.openoffice.org/svg/export" xmlns:xlink="http://www.w3.org/1999/xlink" xmlns:presentation="http://sun.com/xmlns/staroffice/presentation" xmlns:smil="http://www.w3.org/2001/SMIL20/" xmlns:anim="urn:oasis:names:tc:opendocument:xmlns:animation:1.0" xml:space="preserve">
 <defs class="ClipPathGroup">
  <clipPath id="presentation_clip_path" clipPathUnits="userSpaceOnUse">
   <rect x="0" y="0" width="46026" height="30026"/>
  </clipPath>
  <clipPath id="presentation_clip_path_shrink" clipPathUnits="userSpaceOnUse">
   <rect x="46" y="30" width="45934" height="29966"/>
  </clipPath>
 </defs>
 <defs class="TextShapeIndex">
  <g ooo:slide="id1" ooo:id-list="id3 id4 id5 id6 id7 id8 id9 id10 id11 id12 id13 id14 id15 id16 id17 id18 id19 id20 id21 id22 id23 id24 id25 id26 id27 id28 id29 id30 id31 id32 id33 id34 id35 id36 id37"/>
 </defs>
 <defs class="EmbeddedBulletChars">
  <g id="bullet-char-template-57356" transform="scale(0.00048828125,-0.00048828125)">
   <path d="M 580,1141 L 1163,571 580,0 -4,571 580,1141 Z"/>
  </g>
  <g id="bullet-char-template-57354" transform="scale(0.00048828125,-0.00048828125)">
   <path d="M 8,1128 L 1137,1128 1137,0 8,0 8,1128 Z"/>
  </g>
  <g id="bullet-char-template-10146" transform="scale(0.00048828125,-0.00048828125)">
   <path d="M 174,0 L 602,739 174,1481 1456,739 174,0 Z M 1358,739 L 309,1346 659,739 1358,739 Z"/>
  </g>
  <g id="bullet-char-template-10132" transform="scale(0.00048828125,-0.00048828125)">
   <path d="M 2015,739 L 1276,0 717,0 1260,543 174,543 174,936 1260,936 717,1481 1274,1481 2015,739 Z"/>
  </g>
  <g id="bullet-char-template-10007" transform="scale(0.00048828125,-0.00048828125)">
   <path d="M 0,-2 C -7,14 -16,27 -25,37 L 356,567 C 262,823 215,952 215,954 215,979 228,992 255,992 264,992 276,990 289,987 310,991 331,999 354,1012 L 381,999 492,748 772,1049 836,1024 860,1049 C 881,1039 901,1025 922,1006 886,937 835,863 770,784 769,783 710,716 594,584 L 774,223 C 774,196 753,168 711,139 L 727,119 C 717,90 699,76 672,76 641,76 570,178 457,381 L 164,-76 C 142,-110 111,-127 72,-127 30,-127 9,-110 8,-76 1,-67 -2,-52 -2,-32 -2,-23 -1,-13 0,-2 Z"/>
  </g>
  <g id="bullet-char-template-10004" transform="scale(0.00048828125,-0.00048828125)">
   <path d="M 285,-33 C 182,-33 111,30 74,156 52,228 41,333 41,471 41,549 55,616 82,672 116,743 169,778 240,778 293,778 328,747 346,684 L 369,508 C 377,444 397,411 428,410 L 1163,1116 C 1174,1127 1196,1133 1229,1133 1271,1133 1292,1118 1292,1087 L 1292,965 C 1292,929 1282,901 1262,881 L 442,47 C 390,-6 338,-33 285,-33 Z"/>
  </g>
  <g id="bullet-char-template-9679" transform="scale(0.00048828125,-0.00048828125)">
   <path d="M 813,0 C 632,0 489,54 383,161 276,268 223,411 223,592 223,773 276,916 383,1023 489,1130 632,1184 813,1184 992,1184 1136,1130 1245,1023 1353,916 1407,772 1407,592 1407,412 1353,268 1245,161 1136,54 992,0 813,0 Z"/>
  </g>
  <g id="bullet-char-template-8226" transform="scale(0.00048828125,-0.00048828125)">
   <path d="M 346,457 C 273,457 209,483 155,535 101,586 74,649 74,723 74,796 101,859 155,911 209,963 273,989 346,989 419,989 480,963 531,910 582,859 608,796 608,723 608,648 583,586 532,535 482,483 420,457 346,457 Z"/>
  </g>
  <g id="bullet-char-template-8211" transform="scale(0.00048828125,-0.00048828125)">
   <path d="M -4,459 L 1135,459 1135,606 -4,606 -4,459 Z"/>
  </g>
  <g id="bullet-char-template-61548" transform="scale(0.00048828125,-0.00048828125)">
   <path d="M 173,740 C 173,903 231,1043 346,1159 462,1274 601,1332 765,1332 928,1332 1067,1274 1183,1159 1299,1043 1357,903 1357,740 1357,577 1299,437 1183,322 1067,206 928,148 765,148 601,148 462,206 346,322 231,437 173,577 173,740 Z"/>
  </g>
 </defs>
 <defs class="TextEmbeddedBitmaps"/>
 <g>
  <g id="id2" class="Master_Slide">
   <g id="bg-id2" class="Background"/>
   <g id="bo-id2" class="BackgroundObjects"/>
  </g>
 </g>
 <g class="SlideGroup">
  <g>
   <g id="container-id1">
    <g id="id1" class="Slide" clip-path="url(#presentation_clip_path)">
     <g class="Page">
      <g class="com.sun.star.drawing.ClosedBezierShape">
       <g id="id3">
        <rect class="BoundingBox" stroke="none" fill="none" x="37052" y="11559" width="2748" height="17772"/>
        <path fill="rgb(0,0,0)" stroke="none" d="M 39773,11620 C 39103,11620 38468,11620 37832,11585 36985,11585 37091,11903 37091,12608 37127,13349 37091,14160 37091,14901 37091,19274 37127,23684 37091,28094 37091,28341 37021,28941 37197,29152 37374,29364 37974,29293 38256,29293 38750,29258 39279,29258 39773,29258 L 39773,11620 Z"/>
        <path fill="none" stroke="rgb(0,0,0)" stroke-width="50" stroke-linejoin="miter" d="M 39773,11620 C 39103,11620 38468,11620 37832,11585 36985,11585 37091,11903 37091,12608 37127,13349 37091,14160 37091,14901 37091,19274 37127,23684 37091,28094 37091,28341 37021,28941 37197,29152 37374,29364 37974,29293 38256,29293 38750,29258 39279,29258 39773,29258 L 39773,11620 Z"/>
       </g>
      </g>
      <g class="com.sun.star.drawing.ClosedBezierShape">
       <g id="id4">
        <rect class="BoundingBox" stroke="none" fill="none" x="27275" y="11591" width="2752" height="17746"/>
        <path fill="rgb(0,0,0)" stroke="none" d="M 30000,29259 L 30000,14090 30000,11621 C 29259,11621 28553,11621 27847,11621 27247,11585 27282,11797 27318,12362 27353,13244 27318,14196 27318,15076 27318,19310 27318,23579 27318,27812 27318,28130 27247,28871 27388,29082 27491,29266 27769,29308 28048,29311 L 28115,29311 C 28295,29309 28469,29294 28588,29294 29047,29259 29541,29259 30000,29259 Z"/>
        <path fill="none" stroke="rgb(0,0,0)" stroke-width="50" stroke-linejoin="miter" d="M 30000,29259 L 30000,14090 30000,11621 27847,11621 C 27247,11585 27282,11797 27318,12362 27353,13244 27318,14196 27318,15076 L 27318,27812 C 27318,28130 27247,28871 27388,29082 27491,29266 27769,29308 28048,29311 L 28115,29311 C 28295,29309 28469,29294 28588,29294 29047,29259 29541,29259 30000,29259 Z"/>
       </g>
      </g>
      <g class="com.sun.star.drawing.ClosedBezierShape">
       <g id="id5">
        <rect class="BoundingBox" stroke="none" fill="none" x="33076" y="14417" width="2756" height="2733"/>
        <path fill="rgb(0,0,0)" stroke="none" d="M 33104,14443 C 33104,15112 33104,15782 33104,16453 33068,17229 33457,17123 34092,17088 34480,17088 34762,17088 35115,17123 35892,17123 35821,16735 35786,16100 35751,15570 35786,14972 35786,14443 L 33104,14443 Z"/>
        <path fill="none" stroke="rgb(0,0,0)" stroke-width="50" stroke-linejoin="miter" d="M 33104,14443 L 33104,16453 C 33068,17229 33457,17123 34092,17088 34480,17088 34762,17088 35115,17123 35892,17123 35821,16735 35786,16100 35751,15570 35786,14972 35786,14443 L 33104,14443 Z"/>
       </g>
      </g>
      <g class="com.sun.star.drawing.PolyPolygonShape">
       <g id="id6">
        <rect class="BoundingBox" stroke="none" fill="none" x="29974" y="11594" width="3157" height="2734"/>
        <path fill="rgb(0,0,0)" stroke="none" d="M 29999,11620 L 33104,11620 33104,14302 29999,14302 29999,11620 Z"/>
        <path fill="none" stroke="rgb(0,0,0)" stroke-width="50" stroke-linejoin="miter" d="M 29999,11620 L 33104,11620 33104,14302 29999,14302 29999,11620 Z"/>
       </g>
      </g>
      <g class="com.sun.star.drawing.ClosedBezierShape">
       <g id="id7">
        <rect class="BoundingBox" stroke="none" fill="none" x="33079" y="11576" width="2736" height="2894"/>
        <path fill="rgb(0,0,0)" stroke="none" d="M 33104,11621 L 33104,14303 33104,14444 35786,14444 C 35786,13738 35786,13032 35786,12327 35821,11515 35504,11585 34798,11621 34233,11621 33669,11621 33104,11621 Z"/>
        <path fill="none" stroke="rgb(0,0,0)" stroke-width="50" stroke-linejoin="miter" d="M 33104,11621 L 33104,14303 33104,14444 35786,14444 35786,12327 C 35821,11515 35504,11585 34798,11621 L 33104,11621 Z"/>
       </g>
      </g>
      <g class="com.sun.star.drawing.ClosedBezierShape">
       <g id="id8">
        <rect class="BoundingBox" stroke="none" fill="none" x="42848" y="11577" width="2761" height="5576"/>
        <path fill="rgb(0,0,0)" stroke="none" d="M 42876,11622 L 42876,14303 C 42876,14974 42912,15677 42876,16383 42841,17230 43159,17124 43900,17089 44218,17089 44535,17089 44853,17124 45700,17159 45594,16806 45559,16101 45523,15254 45559,14409 45559,13562 45559,13386 45559,13209 45559,13033 45559,12715 45629,12045 45488,11798 45312,11516 44676,11622 44359,11622 43900,11622 43441,11622 42947,11622 L 42876,11622 Z"/>
        <path fill="none" stroke="rgb(0,0,0)" stroke-width="50" stroke-linejoin="miter" d="M 42876,11622 L 42876,14303 C 42876,14974 42912,15677 42876,16383 42841,17230 43159,17124 43900,17089 44218,17089 44535,17089 44853,17124 45700,17159 45594,16806 45559,16101 45523,15254 45559,14409 45559,13562 L 45559,13033 C 45559,12715 45629,12045 45488,11798 45312,11516 44676,11622 44359,11622 L 42947,11622 42876,11622 Z"/>
       </g>
      </g>
      <g class="com.sun.star.drawing.PolyPolygonShape">
       <g id="id9">
        <rect class="BoundingBox" stroke="none" fill="none" x="39746" y="11594" width="3157" height="2734"/>
        <path fill="rgb(0,0,0)" stroke="none" d="M 39771,11620 L 42876,11620 42876,14302 39771,14302 39771,11620 Z"/>
        <path fill="none" stroke="rgb(0,0,0)" stroke-width="50" stroke-linejoin="miter" d="M 39771,11620 L 42876,11620 42876,14302 39771,14302 39771,11620 Z"/>
       </g>
      </g>
      <g class="com.sun.star.drawing.ClosedBezierShape">
       <g id="id10">
        <rect class="BoundingBox" stroke="none" fill="none" x="38970" y="23785" width="6668" height="5537"/>
        <path fill="rgb(0,0,0)" stroke="none" d="M 39771,26613 L 39736,26613 C 39489,26613 39242,26613 38995,26543 L 38995,29260 C 39136,29260 39242,29260 39383,29295 39524,29295 39630,29295 39736,29295 42488,29260 44923,27566 45522,24849 45554,24690 45607,24488 45611,24305 L 45611,24269 C 45607,24060 45532,23881 45275,23826 45064,23791 44570,23826 44323,23826 44111,23826 43864,23826 43652,23826 42700,23791 42982,24320 42629,24990 42100,26049 40900,26613 39771,26613 Z"/>
        <path fill="none" stroke="rgb(0,0,0)" stroke-width="50" stroke-linejoin="miter" d="M 39771,26613 L 39736,26613 C 39489,26613 39242,26613 38995,26543 L 38995,29260 C 39136,29260 39242,29260 39383,29295 L 39736,29295 C 42488,29260 44923,27566 45522,24849 45554,24690 45607,24488 45611,24305 L 45611,24269 C 45607,24060 45532,23881 45275,23826 45064,23791 44570,23826 44323,23826 L 43652,23826 C 42700,23791 42982,24320 42629,24990 42100,26049 40900,26613 39771,26613 Z"/>
       </g>
      </g>
      <g class="com.sun.star.drawing.PolyPolygonShape">
       <g id="id11">
        <rect class="BoundingBox" stroke="none" fill="none" x="-12" y="130" width="30286" height="24675"/>
        <path fill="rgb(0,0,0)" stroke="none" d="M 20865,7705 L 21076,7564 21464,7423 21852,7246 22628,6752 22664,6929 22417,7105 22135,7176 22029,7176 21535,7458 21394,7634 21288,7881 21323,8058 21358,8058 21535,8093 22487,7740 23579,7281 23791,7105 23897,6929 23897,6717 23791,6576 23755,6470 23650,6258 24426,5976 25061,5729 25449,5694 25625,5941 25802,5976 25907,5941 25978,6117 26225,6152 26295,6505 26295,6752 26049,6964 25978,7281 26049,7705 26260,8128 26437,8128 26684,8022 26966,7669 27177,7105 27248,6717 27036,6294 26472,5412 26154,4918 25943,4741 25696,4706 25414,4706 24602,4953 23367,5270 22452,5447 22382,5447 22311,5376 22382,5270 22699,4565 23367,4247 23614,4106 23614,4283 24285,4177 24355,4000 24884,3965 25343,4036 25907,4071 26366,4318 26860,4283 27036,4530 27601,4494 28095,4706 28694,5059 29012,5024 29329,4953 29576,4847 29788,4777 30176,4635 30247,4459 30176,4318 29964,4071 28977,3118 28624,2801 28518,2660 28377,2307 28201,1954 27636,1531 27036,1108 26825,1037 26119,896 26013,684 25802,543 25167,226 24710,155 24707,155 24249,226 23967,226 24002,437 23120,578 23120,684 21641,896 20124,1178 19030,1531 18183,1848 17407,2201 16208,3224 14938,4353 13915,5341 13103,6082 12186,6717 10986,7811 9822,8834 9081,9433 8693,9822 7988,10245 7741,10562 7388,11092 7141,11303 6330,11515 4037,11938 3648,12009 3190,12044 2872,12009 2484,11974 1885,11868 13,11357 13,11838 1285,12220 2026,12432 2555,12538 2731,12573 2872,12573 3190,12573 3402,12573 3754,12538 4636,12467 6682,12256 6929,12220 6965,12256 6929,12291 6612,12644 6400,12856 6365,13067 6259,13491 6259,13914 6294,14302 6224,14655 6118,15076 5836,15746 5659,16170 5342,16699 4460,18004 4107,18392 3895,18639 3719,18710 3507,18745 3366,18780 3296,18886 3296,18957 3260,19098 3260,19133 3260,19168 2943,19804 2837,19980 2731,20192 2590,20333 2449,20474 2378,20721 2026,21179 1673,21779 1461,22026 1320,22097 1214,22132 1073,22203 932,22344 861,22485 791,22591 685,22661 509,22732 438,22732 368,22838 368,22979 297,23084 297,23296 297,23508 226,23578 191,23684 191,23790 191,23825 191,23931 121,24108 121,24213 191,24284 262,24355 368,24496 403,24637 438,24778 509,24778 579,24672 756,24566 791,24566 861,24496 897,24425 1073,24213 1355,24072 1496,23896 1708,23649 2061,23296 2273,23049 2378,22767 2449,22591 2520,22379 2802,21744 3119,21356 3296,21179 4460,20262 5024,19980 5130,19945 5201,19627 5377,19521 5624,19521 6294,19098 5942,19098 5518,19168 4919,19204 10246,13879 10175,14126 10175,14161 10493,13632 10845,12961 11163,12432 11516,11938 12151,11268 12997,10703 14056,10315 14832,10033 15432,9786 16208,9645 17407,9680 17972,9610 18642,9433 19171,9081 19841,8587 20512,7987 20688,7705 20865,7705 Z"/>
        <path fill="none" stroke="rgb(0,0,0)" stroke-width="50" stroke-linejoin="miter" d="M 20865,7705 L 21076,7564 21464,7423 21852,7246 22628,6752 22664,6929 22417,7105 22135,7176 22029,7176 21535,7458 21394,7634 21288,7881 21323,8058 21358,8058 21535,8093 22487,7740 23579,7281 23791,7105 23897,6929 23897,6717 23791,6576 23755,6470 23650,6258 24426,5976 25061,5729 25449,5694 25625,5941 25802,5976 25907,5941 25978,6117 26225,6152 26295,6505 26295,6752 26049,6964 25978,7281 26049,7705 26260,8128 26437,8128 26684,8022 26966,7669 27177,7105 27248,6717 27036,6294 26472,5412 26154,4918 25943,4741 25696,4706 25414,4706 24602,4953 23367,5270 22452,5447 22382,5447 22311,5376 22382,5270 22699,4565 23367,4247 23614,4106 23614,4283 24285,4177 24355,4000 24884,3965 25343,4036 25907,4071 26366,4318 26860,4283 27036,4530 27601,4494 28095,4706 28694,5059 29012,5024 29329,4953 29576,4847 29788,4777 30176,4635 30247,4459 30176,4318 29964,4071 28977,3118 28624,2801 28518,2660 28377,2307 28201,1954 27636,1531 27036,1108 26825,1037 26119,896 26013,684 25802,543 25167,226 24710,155 24707,155 24249,226 23967,226 24002,437 23120,578 23120,684 21641,896 20124,1178 19030,1531 18183,1848 17407,2201 16208,3224 14938,4353 13915,5341 13103,6082 12186,6717 10986,7811 9822,8834 9081,9433 8693,9822 7988,10245 7741,10562 7388,11092 7141,11303 6330,11515 4037,11938 3648,12009 3190,12044 2872,12009 2484,11974 1885,11868 13,11357 13,11838 1285,12220 2026,12432 2555,12538 2731,12573 2872,12573 3190,12573 3402,12573 3754,12538 4636,12467 6682,12256 6929,12220 6965,12256 6929,12291 6612,12644 6400,12856 6365,13067 6259,13491 6259,13914 6294,14302 6224,14655 6118,15076 5836,15746 5659,16170 5342,16699 4460,18004 4107,18392 3895,18639 3719,18710 3507,18745 3366,18780 3296,18886 3296,18957 3260,19098 3260,19133 3260,19168 2943,19804 2837,19980 2731,20192 2590,20333 2449,20474 2378,20721 2026,21179 1673,21779 1461,22026 1320,22097 1214,22132 1073,22203 932,22344 861,22485 791,22591 685,22661 509,22732 438,22732 368,22838 368,22979 297,23084 297,23296 297,23508 226,23578 191,23684 191,23790 191,23825 191,23931 121,24108 121,24213 191,24284 262,24355 368,24496 403,24637 438,24778 509,24778 579,24672 756,24566 791,24566 861,24496 897,24425 1073,24213 1355,24072 1496,23896 1708,23649 2061,23296 2273,23049 2378,22767 2449,22591 2520,22379 2802,21744 3119,21356 3296,21179 4460,20262 5024,19980 5130,19945 5201,19627 5377,19521 5624,19521 6294,19098 5942,19098 5518,19168 4919,19204 10246,13879 10175,14126 10175,14161 10493,13632 10845,12961 11163,12432 11516,11938 12151,11268 12997,10703 14056,10315 14832,10033 15432,9786 16208,9645 17407,9680 17972,9610 18642,9433 19171,9081 19841,8587 20512,7987 20688,7705 20865,7705 Z"/>
       </g>
      </g>
      <g class="com.sun.star.drawing.PolyPolygonShape">
       <g id="id12">
        <rect class="BoundingBox" stroke="none" fill="none" x="2458" y="13852" width="7814" height="11799"/>
        <path fill="rgb(0,0,0)" stroke="none" d="M 9435,17545 L 9682,16981 9823,16205 10034,15605 10105,15040 10105,14548 10176,14160 10176,14125 10246,13878 4918,19203 5518,19168 5942,19098 6294,19098 5624,19521 5377,19521 5201,19627 5130,19944 5024,20227 4813,20791 4566,21320 4460,21391 4354,21426 4283,21638 4283,21849 3860,22873 3895,22908 3613,23367 3472,23437 3331,23437 3225,23578 3119,23825 3013,23860 2943,23896 2837,24037 2802,24107 2731,24213 2555,24354 2519,24637 2519,24672 2484,24848 2519,25166 2625,25272 2731,25378 2766,25483 2802,25589 2872,25624 2943,25624 3049,25448 3225,25272 3260,25236 3295,25201 3331,25201 3613,24848 3684,24813 4213,24425 4319,24249 4354,24002 4460,23649 4672,23014 5095,22238 5730,21532 5801,21461 6788,20474 7847,19345 8553,18815 9047,18251 9435,17545 Z"/>
        <path fill="none" stroke="rgb(0,0,0)" stroke-width="50" stroke-linejoin="miter" d="M 9435,17545 L 9682,16981 9823,16205 10034,15605 10105,15040 10105,14548 10176,14160 10176,14125 10246,13878 4918,19203 5518,19168 5942,19098 6294,19098 5624,19521 5377,19521 5201,19627 5130,19944 5024,20227 4813,20791 4566,21320 4460,21391 4354,21426 4283,21638 4283,21849 3860,22873 3895,22908 3613,23367 3472,23437 3331,23437 3225,23578 3119,23825 3013,23860 2943,23896 2837,24037 2802,24107 2731,24213 2555,24354 2519,24637 2519,24672 2484,24848 2519,25166 2625,25272 2731,25378 2766,25483 2802,25589 2872,25624 2943,25624 3049,25448 3225,25272 3260,25236 3295,25201 3331,25201 3613,24848 3684,24813 4213,24425 4319,24249 4354,24002 4460,23649 4672,23014 5095,22238 5730,21532 5801,21461 6788,20474 7847,19345 8553,18815 9047,18251 9435,17545 Z"/>
       </g>
      </g>
      <g class="com.sun.star.drawing.PolyPolygonShape">
       <g id="id13">
        <rect class="BoundingBox" stroke="none" fill="none" x="40734" y="14028" width="900" height="14339"/>
        <path fill="rgb(0,0,0)" stroke="none" d="M 40759,14054 L 41607,14054 41607,28340 40759,28340 40759,14054 Z"/>
        <path fill="none" stroke="rgb(0,0,0)" stroke-width="50" stroke-linejoin="miter" d="M 40759,14054 L 41607,14054 41607,28340 40759,28340 40759,14054 Z"/>
       </g>
      </g>
      <g class="com.sun.star.drawing.ClosedBezierShape">
       <g id="id14">
        <rect class="BoundingBox" stroke="none" fill="none" x="30927" y="13993" width="945" height="15299"/>
        <path fill="rgb(0,0,0)" stroke="none" d="M 31835,26506 L 31835,17016 31835,14019 30987,14019 30987,17016 30987,25060 C 30987,26224 30987,27459 30952,28623 30952,28870 31023,29329 31376,29258 31835,29187 31870,28552 31835,28235 31835,27670 31835,27035 31835,26506 Z"/>
        <path fill="none" stroke="rgb(0,0,0)" stroke-width="50" stroke-linejoin="miter" d="M 31835,26506 L 31835,17016 31835,14019 30987,14019 30987,17016 30987,25060 C 30987,26224 30987,27459 30952,28623 30952,28870 31023,29329 31376,29258 31835,29187 31870,28552 31835,28235 L 31835,26506 Z"/>
       </g>
      </g>
      <g class="com.sun.star.drawing.PolyPolygonShape">
       <g id="id15">
        <rect class="BoundingBox" stroke="none" fill="none" x="27787" y="28386" width="3651" height="900"/>
        <path fill="rgb(0,0,0)" stroke="none" d="M 27812,28411 L 31411,28411 31411,29259 27812,29259 27812,28411 Z"/>
        <path fill="none" stroke="rgb(0,0,0)" stroke-width="50" stroke-linejoin="miter" d="M 27812,28411 L 31411,28411 31411,29259 27812,29259 27812,28411 Z"/>
       </g>
      </g>
      <g class="com.sun.star.drawing.PolyPolygonShape">
       <g id="id16">
        <rect class="BoundingBox" stroke="none" fill="none" x="12477" y="19778" width="12293" height="2734"/>
        <path fill="rgb(0,0,0)" stroke="none" d="M 12503,19803 L 24743,19803 24743,22485 12503,22485 12503,19803 Z"/>
        <path fill="none" stroke="rgb(0,0,0)" stroke-width="50" stroke-linejoin="miter" d="M 12503,19803 L 24743,19803 24743,22485 12503,22485 12503,19803 Z"/>
       </g>
      </g>
      <g class="com.sun.star.drawing.ClosedBezierShape">
       <g id="id17">
        <rect class="BoundingBox" stroke="none" fill="none" x="12336" y="20695" width="935" height="2699"/>
        <path fill="rgb(0,0,0)" stroke="none" d="M 12998,23367 C 13068,23085 13139,22767 13245,22485 L 12503,22485 12503,20720 12362,20720 12362,23367 12998,23367 Z"/>
        <path fill="none" stroke="rgb(0,0,0)" stroke-width="50" stroke-linejoin="miter" d="M 12998,23367 C 13068,23085 13139,22767 13245,22485 L 12503,22485 12503,20720 12362,20720 12362,23367 12998,23367 Z"/>
       </g>
      </g>
      <g class="com.sun.star.drawing.ClosedBezierShape">
       <g id="id18">
        <rect class="BoundingBox" stroke="none" fill="none" x="13289" y="18296" width="2170" height="1499"/>
        <path fill="rgb(0,0,0)" stroke="none" d="M 13315,19768 L 14444,19768 C 14762,19239 15080,18780 15433,18321 L 13315,18321 13315,19768 Z"/>
        <path fill="none" stroke="rgb(0,0,0)" stroke-width="50" stroke-linejoin="miter" d="M 13315,19768 L 14444,19768 C 14762,19239 15080,18780 15433,18321 L 13315,18321 13315,19768 Z"/>
       </g>
      </g>
      <g class="com.sun.star.drawing.ClosedBezierShape">
       <g id="id19">
        <rect class="BoundingBox" stroke="none" fill="none" x="13289" y="18296" width="2170" height="1499"/>
        <path fill="rgb(0,0,0)" stroke="none" d="M 13315,19768 L 14444,19768 C 14762,19239 15080,18780 15433,18321 L 13315,18321 13315,19768 Z"/>
        <path fill="none" stroke="rgb(0,0,0)" stroke-width="50" stroke-linejoin="miter" d="M 13315,19768 L 14444,19768 C 14762,19239 15080,18780 15433,18321 L 13315,18321 13315,19768 Z"/>
       </g>
      </g>
      <g class="com.sun.star.drawing.PolyPolygonShape">
       <g id="id20">
        <rect class="BoundingBox" stroke="none" fill="none" x="22602" y="18296" width="2310" height="1499"/>
        <path fill="rgb(0,0,0)" stroke="none" d="M 22628,18321 L 24885,18321 24885,19768 22628,19768 22628,18321 Z"/>
        <path fill="none" stroke="rgb(0,0,0)" stroke-width="50" stroke-linejoin="miter" d="M 22628,18321 L 24885,18321 24885,19768 22628,19768 22628,18321 Z"/>
       </g>
      </g>
      <g class="com.sun.star.drawing.PolyPolygonShape">
       <g id="id21">
        <rect class="BoundingBox" stroke="none" fill="none" x="22602" y="18296" width="2310" height="1499"/>
        <path fill="rgb(0,0,0)" stroke="none" d="M 22628,18321 L 24885,18321 24885,19768 22628,19768 22628,18321 Z"/>
        <path fill="none" stroke="rgb(0,0,0)" stroke-width="50" stroke-linejoin="miter" d="M 22628,18321 L 24885,18321 24885,19768 22628,19768 22628,18321 Z"/>
       </g>
      </g>
      <g class="com.sun.star.drawing.PolyPolygonShape">
       <g id="id22">
        <rect class="BoundingBox" stroke="none" fill="none" x="22602" y="22459" width="2028" height="935"/>
        <path fill="rgb(0,0,0)" stroke="none" d="M 22628,22484 L 24603,22484 24603,23367 22628,23367 22628,22484 Z"/>
        <path fill="none" stroke="rgb(0,0,0)" stroke-width="50" stroke-linejoin="miter" d="M 22628,22484 L 24603,22484 24603,23367 22628,23367 22628,22484 Z"/>
       </g>
      </g>
      <g class="com.sun.star.drawing.ClosedBezierShape">
       <g id="id23">
        <rect class="BoundingBox" stroke="none" fill="none" x="12477" y="19778" width="12152" height="2734"/>
        <path fill="rgb(0,0,0)" stroke="none" d="M 22629,22485 L 24602,22485 24602,20721 22629,20721 22629,19803 14443,19803 C 14267,20121 14091,20403 13950,20721 L 12503,20721 12503,22485 13244,22485 22629,22485 Z"/>
        <path fill="none" stroke="rgb(0,0,0)" stroke-width="50" stroke-linejoin="miter" d="M 22629,22485 L 24602,22485 24602,20721 22629,20721 22629,19803 14443,19803 C 14267,20121 14091,20403 13950,20721 L 12503,20721 12503,22485 13244,22485 22629,22485 Z"/>
       </g>
      </g>
      <g class="com.sun.star.drawing.ClosedBezierShape">
       <g id="id24">
        <rect class="BoundingBox" stroke="none" fill="none" x="12477" y="19778" width="12152" height="2734"/>
        <path fill="rgb(0,0,0)" stroke="none" d="M 22629,22485 L 24602,22485 24602,20721 22629,20721 22629,19803 14443,19803 C 14267,20121 14091,20403 13950,20721 L 12503,20721 12503,22485 13244,22485 22629,22485 Z"/>
        <path fill="none" stroke="rgb(0,0,0)" stroke-width="50" stroke-linejoin="miter" d="M 22629,22485 L 24602,22485 24602,20721 22629,20721 22629,19803 14443,19803 C 14267,20121 14091,20403 13950,20721 L 12503,20721 12503,22485 13244,22485 22629,22485 Z"/>
       </g>
      </g>
      <g class="com.sun.star.drawing.ClosedBezierShape">
       <g id="id25">
        <rect class="BoundingBox" stroke="none" fill="none" x="12336" y="20695" width="935" height="2699"/>
        <path fill="rgb(0,0,0)" stroke="none" d="M 12503,22485 L 12503,20720 12362,20720 12362,23367 12998,23367 C 13068,23085 13139,22767 13245,22485 L 12503,22485 Z"/>
        <path fill="none" stroke="rgb(0,0,0)" stroke-width="50" stroke-linejoin="miter" d="M 12503,22485 L 12503,20720 12362,20720 12362,23367 12998,23367 C 13068,23085 13139,22767 13245,22485 L 12503,22485 Z"/>
       </g>
      </g>
      <g class="com.sun.star.drawing.ClosedBezierShape">
       <g id="id26">
        <rect class="BoundingBox" stroke="none" fill="none" x="9832" y="11453" width="15500" height="17876"/>
        <path fill="rgb(0,0,0)" stroke="none" d="M 22629,19803 L 14444,19803 14444,19768 13315,19768 13315,17086 16526,17086 C 18219,15464 20336,14407 22629,14196 L 22629,17086 24885,17086 24885,19768 22629,19768 22629,19803 Z M 12822,24142 C 12857,23895 12927,23649 12998,23366 L 12363,23366 12363,20720 12504,20720 12504,22484 24603,22484 24603,23366 22629,23366 C 22629,25130 22629,26894 22594,28623 22594,29399 22771,29293 23474,29293 23721,29293 24568,29329 24991,29258 25097,29258 25168,29223 25203,29187 25309,29046 25273,28905 25273,28694 25309,28411 25273,28023 25273,27812 25273,27071 25273,26294 25273,25554 25273,21355 25273,17192 25273,13031 25273,12679 25379,12008 25203,11761 24991,11444 24286,11514 23933,11514 23792,11479 23651,11479 23545,11479 16632,11514 11516,17086 10211,23543 9964,24707 9858,25871 9858,27035 9858,27565 9858,28129 9858,28658 9858,29364 10140,29293 10775,29293 11128,29293 11516,29293 11869,29293 12645,29258 12539,28870 12539,28200 12504,27318 12539,26153 12645,25271 12680,24883 12751,24531 12822,24142 Z"/>
        <path fill="none" stroke="rgb(0,0,0)" stroke-width="50" stroke-linejoin="miter" d="M 22629,19803 L 14444,19803 14444,19768 13315,19768 13315,17086 16526,17086 C 18219,15464 20336,14407 22629,14196 L 22629,17086 24885,17086 24885,19768 22629,19768 22629,19803 Z"/>
        <path fill="none" stroke="rgb(0,0,0)" stroke-width="50" stroke-linejoin="miter" d="M 12822,24142 C 12857,23895 12927,23649 12998,23366 L 12363,23366 12363,20720 12504,20720 12504,22484 24603,22484 24603,23366 22629,23366 C 22629,25130 22629,26894 22594,28623 22594,29399 22771,29293 23474,29293 23721,29293 24568,29329 24991,29258 25097,29258 25168,29223 25203,29187 25309,29046 25273,28905 25273,28694 25309,28411 25273,28023 25273,27812 L 25273,25554 25273,13031 C 25273,12679 25379,12008 25203,11761 24991,11444 24286,11514 23933,11514 23792,11479 23651,11479 23545,11479 16632,11514 11516,17086 10211,23543 9964,24707 9858,25871 9858,27035 L 9858,28658 C 9858,29364 10140,29293 10775,29293 L 11869,29293 C 12645,29258 12539,28870 12539,28200 12504,27318 12539,26153 12645,25271 12680,24883 12751,24531 12822,24142 Z"/>
       </g>
      </g>
      <g class="com.sun.star.drawing.ClosedBezierShape">
       <g id="id27">
        <rect class="BoundingBox" stroke="none" fill="none" x="12336" y="20695" width="935" height="2699"/>
        <path fill="rgb(0,0,0)" stroke="none" d="M 12503,22485 L 12503,20720 12362,20720 12362,23367 12998,23367 C 13068,23085 13139,22767 13245,22485 L 12503,22485 Z"/>
        <path fill="none" stroke="rgb(0,0,0)" stroke-width="50" stroke-linejoin="miter" d="M 12503,22485 L 12503,20720 12362,20720 12362,23367 12998,23367 C 13068,23085 13139,22767 13245,22485 L 12503,22485 Z"/>
       </g>
      </g>
      <g class="com.sun.star.drawing.ClosedBezierShape">
       <g id="id28">
        <rect class="BoundingBox" stroke="none" fill="none" x="13289" y="18296" width="2170" height="1499"/>
        <path fill="rgb(0,0,0)" stroke="none" d="M 13315,19768 L 14444,19768 C 14762,19239 15080,18780 15433,18321 L 13315,18321 13315,19768 Z"/>
        <path fill="none" stroke="rgb(0,0,0)" stroke-width="50" stroke-linejoin="miter" d="M 13315,19768 L 14444,19768 C 14762,19239 15080,18780 15433,18321 L 13315,18321 13315,19768 Z"/>
       </g>
      </g>
      <g class="com.sun.star.drawing.PolyPolygonShape">
       <g id="id29">
        <rect class="BoundingBox" stroke="none" fill="none" x="12971" y="18120" width="11623" height="935"/>
        <path fill="rgb(0,0,0)" stroke="none" d="M 12997,18145 L 24567,18145 24567,19028 12997,19028 12997,18145 Z"/>
        <path fill="none" stroke="rgb(0,0,0)" stroke-width="50" stroke-linejoin="miter" d="M 12997,18145 L 24567,18145 24567,19028 12997,19028 12997,18145 Z"/>
       </g>
      </g>
      <g class="com.sun.star.drawing.ClosedBezierShape">
       <g id="id30">
        <rect class="BoundingBox" stroke="none" fill="none" x="13289" y="17061" width="3263" height="1288"/>
        <path fill="rgb(0,0,0)" stroke="none" d="M 13315,17086 L 13315,18322 15432,18322 C 15785,17863 16138,17474 16526,17086 L 13315,17086 Z"/>
        <path fill="none" stroke="rgb(0,0,0)" stroke-width="50" stroke-linejoin="miter" d="M 13315,17086 L 13315,18322 15432,18322 C 15785,17863 16138,17474 16526,17086 L 13315,17086 Z"/>
       </g>
      </g>
      <g class="com.sun.star.drawing.PolyPolygonShape">
       <g id="id31">
        <rect class="BoundingBox" stroke="none" fill="none" x="22602" y="17061" width="2310" height="1288"/>
        <path fill="rgb(0,0,0)" stroke="none" d="M 22628,17086 L 24885,17086 24885,18322 22628,18322 22628,17086 Z"/>
        <path fill="none" stroke="rgb(0,0,0)" stroke-width="50" stroke-linejoin="miter" d="M 22628,17086 L 24885,17086 24885,18322 22628,18322 22628,17086 Z"/>
       </g>
      </g>
      <g class="com.sun.star.drawing.ClosedBezierShape">
       <g id="id32">
        <rect class="BoundingBox" stroke="none" fill="none" x="14418" y="19002" width="794" height="829"/>
        <path fill="rgb(0,0,0)" stroke="none" d="M 14444,19769 L 14444,19804 14444,19769 Z M 14691,19804 C 14479,19698 14585,19557 14691,19416 14797,19239 14868,19027 15186,19027 L 15115,19027 14939,19027 C 14762,19239 14621,19522 14444,19769 L 14444,19804 14691,19804 Z"/>
        <path fill="none" stroke="rgb(0,0,0)" stroke-width="50" stroke-linejoin="miter" d="M 14444,19769 L 14444,19804 14444,19769 Z"/>
        <path fill="none" stroke="rgb(0,0,0)" stroke-width="50" stroke-linejoin="miter" d="M 14691,19804 C 14479,19698 14585,19557 14691,19416 14797,19239 14868,19027 15186,19027 L 15115,19027 14939,19027 C 14762,19239 14621,19522 14444,19769 L 14444,19804 14691,19804 Z"/>
       </g>
      </g>
      <g class="com.sun.star.drawing.ClosedBezierShape">
       <g id="id33">
        <rect class="BoundingBox" stroke="none" fill="none" x="22249" y="19390" width="406" height="441"/>
        <path fill="rgb(0,0,0)" stroke="none" d="M 22523,19663 C 22452,19769 22310,19804 22275,19804 L 22629,19804 22629,19769 22629,19415 C 22629,19486 22593,19592 22523,19663 Z"/>
        <path fill="none" stroke="rgb(0,0,0)" stroke-width="50" stroke-linejoin="miter" d="M 22523,19663 C 22452,19769 22310,19804 22275,19804 L 22629,19804 22629,19769 22629,19415 C 22629,19486 22593,19592 22523,19663 Z"/>
       </g>
      </g>
      <g class="com.sun.star.drawing.ClosedBezierShape">
       <g id="id34">
        <rect class="BoundingBox" stroke="none" fill="none" x="22461" y="18896" width="300" height="300"/>
        <path fill="rgb(0,0,0)" stroke="none" d="M 22593,18921 C 22558,18921 22487,18992 22487,19063 22487,19134 22558,19169 22593,19169 22664,19169 22735,19134 22735,19063 22735,18992 22664,18921 22593,18921 Z"/>
        <path fill="none" stroke="rgb(0,0,0)" stroke-width="50" stroke-linejoin="miter" d="M 22593,18921 C 22558,18921 22487,18992 22487,19063 22487,19134 22558,19169 22593,19169 22664,19169 22735,19134 22735,19063 22735,18992 22664,18921 22593,18921 Z"/>
       </g>
      </g>
      <g class="com.sun.star.drawing.ClosedBezierShape">
       <g id="id35">
        <rect class="BoundingBox" stroke="none" fill="none" x="22531" y="19002" width="300" height="300"/>
        <path fill="rgb(0,0,0)" stroke="none" d="M 22663,19027 C 22592,19027 22557,19062 22557,19133 22557,19204 22592,19275 22663,19275 22734,19275 22805,19204 22805,19133 22805,19062 22734,19027 22663,19027 Z"/>
        <path fill="none" stroke="rgb(0,0,0)" stroke-width="50" stroke-linejoin="miter" d="M 22663,19027 C 22592,19027 22557,19062 22557,19133 22557,19204 22592,19275 22663,19275 22734,19275 22805,19204 22805,19133 22805,19062 22734,19027 22663,19027 Z"/>
       </g>
      </g>
      <g class="com.sun.star.drawing.ClosedBezierShape">
       <g id="id36">
        <rect class="BoundingBox" stroke="none" fill="none" x="22567" y="19072" width="300" height="300"/>
        <path fill="rgb(0,0,0)" stroke="none" d="M 22699,19097 C 22628,19097 22593,19132 22593,19203 22593,19274 22628,19345 22699,19345 22770,19345 22841,19274 22841,19203 22841,19132 22770,19097 22699,19097 Z"/>
        <path fill="none" stroke="rgb(0,0,0)" stroke-width="50" stroke-linejoin="miter" d="M 22699,19097 C 22628,19097 22593,19132 22593,19203 22593,19274 22628,19345 22699,19345 22770,19345 22841,19274 22841,19203 22841,19132 22770,19097 22699,19097 Z"/>
       </g>
      </g>
      <g class="com.sun.star.drawing.ClosedBezierShape">
       <g id="id37">
        <rect class="BoundingBox" stroke="none" fill="none" x="22320" y="18790" width="335" height="300"/>
        <path fill="rgb(0,0,0)" stroke="none" d="M 22488,18815 C 22417,18815 22346,18886 22346,18957 22346,19028 22417,19063 22488,19063 22558,19063 22629,19028 22629,18957 22629,18886 22558,18815 22488,18815 Z"/>
        <path fill="none" stroke="rgb(0,0,0)" stroke-width="50" stroke-linejoin="miter" d="M 22488,18815 C 22417,18815 22346,18886 22346,18957 22346,19028 22417,19063 22488,19063 22558,19063 22629,19028 22629,18957 22629,18886 22558,18815 22488,18815 Z"/>
       </g>
      </g>
     </g>
    </g>
   </g>
  </g>
 </g>
</svg>