<?xml version="1.0" encoding="UTF-8"?>
<svg xmlns="http://www.w3.org/2000/svg" xmlns:xlink="http://www.w3.org/1999/xlink" width="40pt" height="40pt" viewBox="0 0 40 40" version="1.1">
<g id="surface1">
<path style="fill:none;stroke-width:1;stroke-linecap:round;stroke-linejoin:round;stroke:rgb(0%,0%,0%);stroke-opacity:1;stroke-miterlimit:4;" d="M 15.049219 4.999219 C 17.048437 5.390625 18.609375 6.951562 19.000781 8.950781 M 15.049219 1.000781 C 19.230469 1.464844 22.530469 4.760156 22.999219 8.939063 M 22.000781 16.919531 L 22.000781 19.919531 C 22.003125 20.482031 21.766406 21.021094 21.351562 21.400781 C 20.936719 21.782812 20.38125 21.970312 19.821094 21.921094 C 16.74375 21.585938 13.785937 20.533594 11.189063 18.850781 C 8.772656 17.315625 6.724219 15.267187 5.189062 12.850781 C 3.499219 10.242188 2.449219 7.270312 2.121094 4.178906 C 2.069531 3.621094 2.257031 3.065625 2.634375 2.650781 C 3.014063 2.235937 3.548437 2.001562 4.110937 1.999219 L 7.110937 1.999219 C 8.114062 1.989844 8.969531 2.725781 9.110156 3.719531 C 9.236719 4.680469 9.471094 5.622656 9.810937 6.529687 C 10.085156 7.260937 9.909375 8.085938 9.360938 8.639062 L 8.090625 9.909375 C 9.513281 12.4125 11.5875 14.486719 14.090625 15.909375 L 15.360937 14.639062 C 15.914062 14.090625 16.739062 13.914844 17.470312 14.189063 C 18.377344 14.528906 19.319531 14.763281 20.280469 14.889844 C 21.285937 15.032812 22.024219 15.904687 22.000781 16.919531 Z M 22.000781 16.919531 " transform="matrix(1.666667,0,0,1.666667,0,0)"/>
</g>
</svg>
