<?xml version="1.0" encoding="UTF-8"?>
<!DOCTYPE svg PUBLIC "-//W3C//DTD SVG 1.1//EN" "http://www.w3.org/Graphics/SVG/1.1/DTD/svg11.dtd">
<svg version="1.2" width="11.29mm" height="11.29mm" viewBox="0 0 1129 1129" preserveAspectRatio="xMidYMid" fill-rule="evenodd" stroke-width="28.222" stroke-linejoin="round" xmlns="http://www.w3.org/2000/svg" xmlns:ooo="http://xml.openoffice.org/svg/export" xmlns:xlink="http://www.w3.org/1999/xlink" xmlns:presentation="http://sun.com/xmlns/staroffice/presentation" xmlns:smil="http://www.w3.org/2001/SMIL20/" xmlns:anim="urn:oasis:names:tc:opendocument:xmlns:animation:1.0" xml:space="preserve">
 <defs class="ClipPathGroup">
  <clipPath id="presentation_clip_path" clipPathUnits="userSpaceOnUse">
   <rect x="0" y="0" width="1129" height="1129"/>
  </clipPath>
  <clipPath id="presentation_clip_path_shrink" clipPathUnits="userSpaceOnUse">
   <rect x="1" y="1" width="1127" height="1127"/>
  </clipPath>
 </defs>
 <defs class="TextShapeIndex">
  <g ooo:slide="id1" ooo:id-list="id3 id4 id5 id6 id7 id8 id9"/>
 </defs>
 <defs class="EmbeddedBulletChars">
  <g id="bullet-char-template-57356" transform="scale(0.00048828125,-0.00048828125)">
   <path d="M 580,1141 L 1163,571 580,0 -4,571 580,1141 Z"/>
  </g>
  <g id="bullet-char-template-57354" transform="scale(0.00048828125,-0.00048828125)">
   <path d="M 8,1128 L 1137,1128 1137,0 8,0 8,1128 Z"/>
  </g>
  <g id="bullet-char-template-10146" transform="scale(0.00048828125,-0.00048828125)">
   <path d="M 174,0 L 602,739 174,1481 1456,739 174,0 Z M 1358,739 L 309,1346 659,739 1358,739 Z"/>
  </g>
  <g id="bullet-char-template-10132" transform="scale(0.00048828125,-0.00048828125)">
   <path d="M 2015,739 L 1276,0 717,0 1260,543 174,543 174,936 1260,936 717,1481 1274,1481 2015,739 Z"/>
  </g>
  <g id="bullet-char-template-10007" transform="scale(0.00048828125,-0.00048828125)">
   <path d="M 0,-2 C -7,14 -16,27 -25,37 L 356,567 C 262,823 215,952 215,954 215,979 228,992 255,992 264,992 276,990 289,987 310,991 331,999 354,1012 L 381,999 492,748 772,1049 836,1024 860,1049 C 881,1039 901,1025 922,1006 886,937 835,863 770,784 769,783 710,716 594,584 L 774,223 C 774,196 753,168 711,139 L 727,119 C 717,90 699,76 672,76 641,76 570,178 457,381 L 164,-76 C 142,-110 111,-127 72,-127 30,-127 9,-110 8,-76 1,-67 -2,-52 -2,-32 -2,-23 -1,-13 0,-2 Z"/>
  </g>
  <g id="bullet-char-template-10004" transform="scale(0.00048828125,-0.00048828125)">
   <path d="M 285,-33 C 182,-33 111,30 74,156 52,228 41,333 41,471 41,549 55,616 82,672 116,743 169,778 240,778 293,778 328,747 346,684 L 369,508 C 377,444 397,411 428,410 L 1163,1116 C 1174,1127 1196,1133 1229,1133 1271,1133 1292,1118 1292,1087 L 1292,965 C 1292,929 1282,901 1262,881 L 442,47 C 390,-6 338,-33 285,-33 Z"/>
  </g>
  <g id="bullet-char-template-9679" transform="scale(0.00048828125,-0.00048828125)">
   <path d="M 813,0 C 632,0 489,54 383,161 276,268 223,411 223,592 223,773 276,916 383,1023 489,1130 632,1184 813,1184 992,1184 1136,1130 1245,1023 1353,916 1407,772 1407,592 1407,412 1353,268 1245,161 1136,54 992,0 813,0 Z"/>
  </g>
  <g id="bullet-char-template-8226" transform="scale(0.00048828125,-0.00048828125)">
   <path d="M 346,457 C 273,457 209,483 155,535 101,586 74,649 74,723 74,796 101,859 155,911 209,963 273,989 346,989 419,989 480,963 531,910 582,859 608,796 608,723 608,648 583,586 532,535 482,483 420,457 346,457 Z"/>
  </g>
  <g id="bullet-char-template-8211" transform="scale(0.00048828125,-0.00048828125)">
   <path d="M -4,459 L 1135,459 1135,606 -4,606 -4,459 Z"/>
  </g>
  <g id="bullet-char-template-61548" transform="scale(0.00048828125,-0.00048828125)">
   <path d="M 173,740 C 173,903 231,1043 346,1159 462,1274 601,1332 765,1332 928,1332 1067,1274 1183,1159 1299,1043 1357,903 1357,740 1357,577 1299,437 1183,322 1067,206 928,148 765,148 601,148 462,206 346,322 231,437 173,577 173,740 Z"/>
  </g>
 </defs>
 <defs class="TextEmbeddedBitmaps"/>
 <g>
  <g id="id2" class="Master_Slide">
   <g id="bg-id2" class="Background"/>
   <g id="bo-id2" class="BackgroundObjects"/>
  </g>
 </g>
 <g class="SlideGroup">
  <g>
   <g id="container-id1">
    <g id="id1" class="Slide" clip-path="url(#presentation_clip_path)">
     <g class="Page">
      <g class="com.sun.star.drawing.ClosedBezierShape">
       <g id="id3">
        <rect class="BoundingBox" stroke="none" fill="none" x="164" y="150" width="938" height="936"/>
        <path fill="rgb(0,0,0)" stroke="none" d="M 718,1080 C 704,1080 691,1075 680,1065 L 199,583 C 182,566 169,534 170,510 L 180,219 C 181,190 205,166 234,165 L 296,163 C 306,163 314,170 315,180 315,190 307,198 297,199 L 235,200 C 225,201 216,210 215,220 L 205,511 C 205,526 214,548 224,558 L 705,1040 C 712,1047 723,1047 730,1040 L 1055,715 C 1058,712 1060,707 1060,703 1060,698 1058,693 1055,690 L 574,209 C 563,199 541,189 526,190 L 387,195 C 377,195 369,188 369,178 369,168 376,160 386,160 L 525,155 C 550,155 581,167 598,184 L 1080,665 C 1090,675 1095,688 1095,703 1095,717 1090,730 1080,740 L 755,1065 C 745,1075 731,1080 718,1080 Z"/>
        <path fill="none" stroke="rgb(0,0,0)" stroke-width="10" stroke-linejoin="miter" d="M 718,1080 C 704,1080 691,1075 680,1065 L 199,583 C 182,566 169,534 170,510 L 180,219 C 181,190 205,166 234,165 L 296,163 C 306,163 314,170 315,180 315,190 307,198 297,199 L 235,200 C 225,201 216,210 215,220 L 205,511 C 205,526 214,548 224,558 L 705,1040 C 712,1047 723,1047 730,1040 L 1055,715 C 1058,712 1060,707 1060,703 1060,698 1058,693 1055,690 L 574,209 C 563,199 541,189 526,190 L 387,195 C 377,195 369,188 369,178 369,168 376,160 386,160 L 525,155 C 550,155 581,167 598,184 L 1080,665 C 1090,675 1095,688 1095,703 1095,717 1090,730 1080,740 L 755,1065 C 745,1075 731,1080 718,1080 Z"/>
       </g>
      </g>
      <g class="com.sun.star.drawing.ClosedBezierShape">
       <g id="id4">
        <rect class="BoundingBox" stroke="none" fill="none" x="277" y="261" width="224" height="223"/>
        <path fill="rgb(0,0,0)" stroke="none" d="M 388,477 C 330,477 282,429 282,370 282,333 302,299 334,279 343,274 354,277 359,285 364,294 361,305 353,310 331,323 317,345 317,370 317,410 349,441 388,441 427,441 459,410 459,370 459,338 437,310 405,302 395,300 390,290 392,281 394,271 403,265 413,267 461,279 495,321 495,370 495,429 447,477 388,477 Z"/>
        <path fill="none" stroke="rgb(0,0,0)" stroke-width="10" stroke-linejoin="miter" d="M 388,477 C 330,477 282,429 282,370 282,333 302,299 334,279 343,274 354,277 359,285 364,294 361,305 353,310 331,323 317,345 317,370 317,410 349,441 388,441 427,441 459,410 459,370 459,338 437,310 405,302 395,300 390,290 392,281 394,271 403,265 413,267 461,279 495,321 495,370 495,429 447,477 388,477 Z"/>
       </g>
      </g>
      <g class="com.sun.star.drawing.ClosedBezierShape">
       <g id="id5">
        <rect class="BoundingBox" stroke="none" fill="none" x="465" y="439" width="187" height="189"/>
        <path fill="rgb(0,0,0)" stroke="none" d="M 557,603 C 547,613 536,619 524,620 515,622 507,620 499,616 494,613 490,610 485,605 477,597 472,588 471,578 469,570 470,562 473,553 477,545 482,537 489,529 L 497,536 C 505,542 506,554 501,562 501,562 500,565 499,572 499,578 501,582 504,585 509,590 515,591 522,589 526,589 530,586 534,582 540,576 543,568 544,556 543,548 543,536 543,519 542,505 543,494 546,486 549,476 554,468 561,461 574,448 588,442 604,444 613,446 622,450 630,458 637,466 642,474 644,483 646,490 646,497 643,505 641,512 637,519 632,526 L 622,519 C 614,514 611,503 615,496 L 616,490 C 616,486 615,482 611,478 607,474 602,473 597,475 592,476 588,478 584,483 577,489 574,498 572,511 572,516 572,522 573,529 574,539 574,545 574,548 574,559 573,568 571,576 570,580 568,583 567,586 564,593 561,599 557,603 Z"/>
        <path fill="none" stroke="rgb(0,0,0)" stroke-width="10" stroke-linejoin="miter" d="M 557,603 C 547,613 536,619 524,620 515,622 507,620 499,616 494,613 490,610 485,605 477,597 472,588 471,578 469,570 470,562 473,553 477,545 482,537 489,529 L 497,536 C 505,542 506,554 501,562 501,562 500,565 499,572 499,578 501,582 504,585 509,590 515,591 522,589 526,589 530,586 534,582 540,576 543,568 544,556 543,548 543,536 543,519 542,505 543,494 546,486 549,476 554,468 561,461 574,448 588,442 604,444 613,446 622,450 630,458 637,466 642,474 644,483 646,490 646,497 643,505 641,512 637,519 632,526 L 622,519 C 614,514 611,503 615,496 L 616,490 C 616,486 615,482 611,478 607,474 602,473 597,475 592,476 588,478 584,483 577,489 574,498 572,511 572,516 572,522 573,529 574,539 574,545 574,548 574,559 573,568 571,576 570,580 568,583 567,586 564,593 561,599 557,603 Z"/>
       </g>
      </g>
      <g class="com.sun.star.drawing.ClosedBezierShape">
       <g id="id6">
        <rect class="BoundingBox" stroke="none" fill="none" x="542" y="540" width="193" height="193"/>
        <path fill="rgb(0,0,0)" stroke="none" d="M 611,663 C 605,656 593,656 586,662 L 576,668 C 568,674 557,674 551,668 545,662 546,652 554,646 L 692,549 C 700,543 712,544 719,551 L 723,555 C 730,562 731,574 725,582 L 627,720 C 622,727 612,729 606,723 600,716 599,705 605,697 L 612,688 C 618,680 617,669 611,663 Z M 677,600 C 683,592 682,590 674,596 L 638,623 C 630,629 628,637 632,642 636,646 645,643 651,635 L 677,600 Z"/>
        <path fill="none" stroke="rgb(0,0,0)" stroke-width="10" stroke-linejoin="miter" d="M 611,663 C 605,656 593,656 586,662 L 576,668 C 568,674 557,674 551,668 545,662 546,652 554,646 L 692,549 C 700,543 712,544 719,551 L 723,555 C 730,562 731,574 725,582 L 627,720 C 622,727 612,729 606,723 600,716 599,705 605,697 L 612,688 C 618,680 617,669 611,663 Z"/>
        <path fill="none" stroke="rgb(0,0,0)" stroke-width="10" stroke-linejoin="miter" d="M 677,600 C 683,592 682,590 674,596 L 638,623 C 630,629 628,637 632,642 636,646 645,643 651,635 L 677,600 Z"/>
       </g>
      </g>
      <g class="com.sun.star.drawing.ClosedBezierShape">
       <g id="id7">
        <rect class="BoundingBox" stroke="none" fill="none" x="642" y="617" width="163" height="198"/>
        <path fill="rgb(0,0,0)" stroke="none" d="M 710,805 C 704,811 693,810 687,803 L 653,770 C 646,763 646,752 653,745 L 770,628 C 777,621 788,620 794,626 800,632 799,642 792,649 L 696,745 C 689,752 689,763 696,770 L 708,782 C 715,789 716,799 710,805 Z"/>
        <path fill="none" stroke="rgb(0,0,0)" stroke-width="10" stroke-linejoin="miter" d="M 710,805 C 704,811 693,810 687,803 L 653,770 C 646,763 646,752 653,745 L 770,628 C 777,621 788,620 794,626 800,632 799,642 792,649 L 696,745 C 689,752 689,763 696,770 L 708,782 C 715,789 716,799 710,805 Z"/>
       </g>
      </g>
      <g class="com.sun.star.drawing.ClosedBezierShape">
       <g id="id8">
        <rect class="BoundingBox" stroke="none" fill="none" x="722" y="696" width="201" height="201"/>
        <path fill="rgb(0,0,0)" stroke="none" d="M 732,849 C 725,842 725,830 732,823 L 849,706 C 856,699 868,699 874,706 L 911,742 C 917,749 918,760 912,765 906,771 896,771 889,764 L 874,749 C 868,742 856,742 849,749 L 836,763 C 829,770 829,781 836,788 L 839,792 C 846,799 847,809 841,815 835,821 825,820 818,813 L 814,810 C 807,803 796,803 789,810 L 775,823 C 768,830 768,842 775,848 L 790,863 C 797,870 797,880 791,886 786,892 775,891 768,885 L 732,849 Z"/>
        <path fill="none" stroke="rgb(0,0,0)" stroke-width="10" stroke-linejoin="miter" d="M 732,849 C 725,842 725,830 732,823 L 849,706 C 856,699 868,699 874,706 L 911,742 C 917,749 918,760 912,765 906,771 896,771 889,764 L 874,749 C 868,742 856,742 849,749 L 836,763 C 829,770 829,781 836,788 L 839,792 C 846,799 847,809 841,815 835,821 825,820 818,813 L 814,810 C 807,803 796,803 789,810 L 775,823 C 768,830 768,842 775,848 L 790,863 C 797,870 797,880 791,886 786,892 775,891 768,885 L 732,849 Z"/>
       </g>
      </g>
      <g class="com.sun.star.drawing.ClosedBezierShape">
       <g id="id9">
        <rect class="BoundingBox" stroke="none" fill="none" x="32" y="30" width="396" height="390"/>
        <path fill="rgb(0,0,0)" stroke="none" d="M 313,413 C 305,413 298,408 296,401 293,391 298,382 308,379 325,373 341,364 353,352 406,298 394,200 326,131 292,97 250,76 208,71 167,67 130,78 105,103 52,156 64,255 133,324 135,326 137,328 140,330 147,337 147,348 141,355 134,363 123,363 116,356 113,354 110,351 108,349 26,267 13,145 80,78 113,45 160,30 212,36 262,42 311,67 351,106 433,188 445,310 378,377 361,393 341,405 318,413 316,413 314,413 313,413 Z"/>
        <path fill="none" stroke="rgb(0,0,0)" stroke-width="10" stroke-linejoin="miter" d="M 313,413 C 305,413 298,408 296,401 293,391 298,382 308,379 325,373 341,364 353,352 406,298 394,200 326,131 292,97 250,76 208,71 167,67 130,78 105,103 52,156 64,255 133,324 135,326 137,328 140,330 147,337 147,348 141,355 134,363 123,363 116,356 113,354 110,351 108,349 26,267 13,145 80,78 113,45 160,30 212,36 262,42 311,67 351,106 433,188 445,310 378,377 361,393 341,405 318,413 316,413 314,413 313,413 Z"/>
       </g>
      </g>
     </g>
    </g>
   </g>
  </g>
 </g>
</svg>