<?xml version="1.0" encoding="UTF-8"?>
<!DOCTYPE svg PUBLIC "-//W3C//DTD SVG 1.1//EN" "http://www.w3.org/Graphics/SVG/1.1/DTD/svg11.dtd">
<svg version="1.2" width="16.2mm" height="11.1mm" viewBox="0 0 1620 1110" preserveAspectRatio="xMidYMid" fill-rule="evenodd" stroke-width="28.222" stroke-linejoin="round" xmlns="http://www.w3.org/2000/svg" xmlns:ooo="http://xml.openoffice.org/svg/export" xmlns:xlink="http://www.w3.org/1999/xlink" xmlns:presentation="http://sun.com/xmlns/staroffice/presentation" xmlns:smil="http://www.w3.org/2001/SMIL20/" xmlns:anim="urn:oasis:names:tc:opendocument:xmlns:animation:1.0" xml:space="preserve">
 <defs class="ClipPathGroup">
  <clipPath id="presentation_clip_path" clipPathUnits="userSpaceOnUse">
   <rect x="0" y="0" width="1620" height="1110"/>
  </clipPath>
  <clipPath id="presentation_clip_path_shrink" clipPathUnits="userSpaceOnUse">
   <rect x="1" y="1" width="1617" height="1108"/>
  </clipPath>
 </defs>
 <defs class="TextShapeIndex">
  <g ooo:slide="id1" ooo:id-list="id3"/>
 </defs>
 <defs class="EmbeddedBulletChars">
  <g id="bullet-char-template-57356" transform="scale(0.00048828125,-0.00048828125)">
   <path d="M 580,1141 L 1163,571 580,0 -4,571 580,1141 Z"/>
  </g>
  <g id="bullet-char-template-57354" transform="scale(0.00048828125,-0.00048828125)">
   <path d="M 8,1128 L 1137,1128 1137,0 8,0 8,1128 Z"/>
  </g>
  <g id="bullet-char-template-10146" transform="scale(0.00048828125,-0.00048828125)">
   <path d="M 174,0 L 602,739 174,1481 1456,739 174,0 Z M 1358,739 L 309,1346 659,739 1358,739 Z"/>
  </g>
  <g id="bullet-char-template-10132" transform="scale(0.00048828125,-0.00048828125)">
   <path d="M 2015,739 L 1276,0 717,0 1260,543 174,543 174,936 1260,936 717,1481 1274,1481 2015,739 Z"/>
  </g>
  <g id="bullet-char-template-10007" transform="scale(0.00048828125,-0.00048828125)">
   <path d="M 0,-2 C -7,14 -16,27 -25,37 L 356,567 C 262,823 215,952 215,954 215,979 228,992 255,992 264,992 276,990 289,987 310,991 331,999 354,1012 L 381,999 492,748 772,1049 836,1024 860,1049 C 881,1039 901,1025 922,1006 886,937 835,863 770,784 769,783 710,716 594,584 L 774,223 C 774,196 753,168 711,139 L 727,119 C 717,90 699,76 672,76 641,76 570,178 457,381 L 164,-76 C 142,-110 111,-127 72,-127 30,-127 9,-110 8,-76 1,-67 -2,-52 -2,-32 -2,-23 -1,-13 0,-2 Z"/>
  </g>
  <g id="bullet-char-template-10004" transform="scale(0.00048828125,-0.00048828125)">
   <path d="M 285,-33 C 182,-33 111,30 74,156 52,228 41,333 41,471 41,549 55,616 82,672 116,743 169,778 240,778 293,778 328,747 346,684 L 369,508 C 377,444 397,411 428,410 L 1163,1116 C 1174,1127 1196,1133 1229,1133 1271,1133 1292,1118 1292,1087 L 1292,965 C 1292,929 1282,901 1262,881 L 442,47 C 390,-6 338,-33 285,-33 Z"/>
  </g>
  <g id="bullet-char-template-9679" transform="scale(0.00048828125,-0.00048828125)">
   <path d="M 813,0 C 632,0 489,54 383,161 276,268 223,411 223,592 223,773 276,916 383,1023 489,1130 632,1184 813,1184 992,1184 1136,1130 1245,1023 1353,916 1407,772 1407,592 1407,412 1353,268 1245,161 1136,54 992,0 813,0 Z"/>
  </g>
  <g id="bullet-char-template-8226" transform="scale(0.00048828125,-0.00048828125)">
   <path d="M 346,457 C 273,457 209,483 155,535 101,586 74,649 74,723 74,796 101,859 155,911 209,963 273,989 346,989 419,989 480,963 531,910 582,859 608,796 608,723 608,648 583,586 532,535 482,483 420,457 346,457 Z"/>
  </g>
  <g id="bullet-char-template-8211" transform="scale(0.00048828125,-0.00048828125)">
   <path d="M -4,459 L 1135,459 1135,606 -4,606 -4,459 Z"/>
  </g>
  <g id="bullet-char-template-61548" transform="scale(0.00048828125,-0.00048828125)">
   <path d="M 173,740 C 173,903 231,1043 346,1159 462,1274 601,1332 765,1332 928,1332 1067,1274 1183,1159 1299,1043 1357,903 1357,740 1357,577 1299,437 1183,322 1067,206 928,148 765,148 601,148 462,206 346,322 231,437 173,577 173,740 Z"/>
  </g>
 </defs>
 <defs class="TextEmbeddedBitmaps"/>
 <g>
  <g id="id2" class="Master_Slide">
   <g id="bg-id2" class="Background"/>
   <g id="bo-id2" class="BackgroundObjects"/>
  </g>
 </g>
 <g class="SlideGroup">
  <g>
   <g id="container-id1">
    <g id="id1" class="Slide" clip-path="url(#presentation_clip_path)">
     <g class="Page">
      <g class="com.sun.star.drawing.ClosedBezierShape">
       <g id="id3">
        <rect class="BoundingBox" stroke="none" fill="none" x="0" y="0" width="1621" height="1111"/>
        <path fill="rgb(0,0,0)" stroke="none" d="M 1148,1060 L 1012,884 C 1004,875 999,870 995,868 L 990,863 988,868 957,1010 952,1038 C 944,1070 926,1099 887,1106 L 864,1109 709,1109 C 432,1109 182,703 7,199 L 5,195 C 3,183 1,170 0,157 L 0,140 C 1,127 4,114 9,103 26,71 60,62 91,62 L 330,62 C 348,62 359,71 364,87 417,269 485,379 565,507 L 565,512 C 576,529 594,525 604,509 L 609,493 609,208 C 609,165 590,158 547,153 525,148 510,128 518,106 538,40 605,3 696,0 L 834,0 C 892,10 940,45 940,128 L 940,502 946,507 C 959,512 983,512 1002,480 1086,359 1179,217 1194,144 1194,138 1196,135 1196,133 1212,96 1258,71 1278,64 1280,64 1287,62 1292,62 L 1542,62 1558,64 C 1562,64 1567,64 1575,66 1589,71 1599,84 1606,94 1620,118 1618,142 1620,152 L 1620,164 C 1596,314 1429,482 1356,590 1340,617 1340,636 1356,657 L 1591,959 C 1618,998 1615,1042 1587,1072 1567,1095 1542,1104 1513,1109 L 1237,1109 1241,1109 C 1239,1109 1236,1110 1234,1110 L 1220,1110 C 1196,1108 1177,1095 1163,1079 L 1148,1060 Z M 1237,1040 L 1486,1040 C 1513,1040 1531,1033 1539,1026 1542,1023 1544,1017 1542,1008 L 1536,998 1303,700 C 1263,652 1270,597 1301,552 1369,448 1513,302 1549,178 L 1553,156 1551,144 1549,133 1296,133 1290,135 C 1280,141 1272,148 1265,153 L 1258,163 1249,192 C 1220,277 1148,386 1086,477 L 1057,522 1037,544 C 988,592 915,585 884,544 877,534 873,522 873,507 L 873,128 C 873,82 853,66 803,66 L 712,69 C 667,69 638,77 616,89 L 607,96 614,99 C 647,114 676,144 676,208 L 676,497 C 671,585 563,627 516,557 L 508,544 C 436,433 374,329 321,176 L 306,133 93,131 C 73,131 69,138 69,138 69,141 67,146 67,163 L 73,178 106,272 C 281,735 501,1040 709,1040 L 864,1040 C 884,1040 889,1015 891,1001 L 891,996 923,850 923,848 C 928,833 935,820 944,811 959,795 978,791 997,793 1024,795 1045,816 1064,841 L 1201,1017 C 1216,1038 1225,1040 1232,1040 L 1237,1040 Z"/>
       </g>
      </g>
     </g>
    </g>
   </g>
  </g>
 </g>
</svg>