<?xml version="1.0" encoding="UTF-8"?>
<!DOCTYPE svg PUBLIC "-//W3C//DTD SVG 1.1//EN" "http://www.w3.org/Graphics/SVG/1.1/DTD/svg11.dtd">
<svg version="1.2" width="328.13mm" height="325mm" viewBox="0 0 32813 32500" preserveAspectRatio="xMidYMid" fill-rule="evenodd" stroke-width="28.222" stroke-linejoin="round" xmlns="http://www.w3.org/2000/svg" xmlns:ooo="http://xml.openoffice.org/svg/export" xmlns:xlink="http://www.w3.org/1999/xlink" xmlns:presentation="http://sun.com/xmlns/staroffice/presentation" xmlns:smil="http://www.w3.org/2001/SMIL20/" xmlns:anim="urn:oasis:names:tc:opendocument:xmlns:animation:1.0" xml:space="preserve">
 <defs class="ClipPathGroup">
  <clipPath id="presentation_clip_path" clipPathUnits="userSpaceOnUse">
   <rect x="0" y="0" width="32813" height="32500"/>
  </clipPath>
  <clipPath id="presentation_clip_path_shrink" clipPathUnits="userSpaceOnUse">
   <rect x="32" y="32" width="32748" height="32435"/>
  </clipPath>
 </defs>
 <defs class="TextShapeIndex">
  <g ooo:slide="id1" ooo:id-list="id3 id4 id5 id6 id7 id8"/>
 </defs>
 <defs class="EmbeddedBulletChars">
  <g id="bullet-char-template-57356" transform="scale(0.00048828125,-0.00048828125)">
   <path d="M 580,1141 L 1163,571 580,0 -4,571 580,1141 Z"/>
  </g>
  <g id="bullet-char-template-57354" transform="scale(0.00048828125,-0.00048828125)">
   <path d="M 8,1128 L 1137,1128 1137,0 8,0 8,1128 Z"/>
  </g>
  <g id="bullet-char-template-10146" transform="scale(0.00048828125,-0.00048828125)">
   <path d="M 174,0 L 602,739 174,1481 1456,739 174,0 Z M 1358,739 L 309,1346 659,739 1358,739 Z"/>
  </g>
  <g id="bullet-char-template-10132" transform="scale(0.00048828125,-0.00048828125)">
   <path d="M 2015,739 L 1276,0 717,0 1260,543 174,543 174,936 1260,936 717,1481 1274,1481 2015,739 Z"/>
  </g>
  <g id="bullet-char-template-10007" transform="scale(0.00048828125,-0.00048828125)">
   <path d="M 0,-2 C -7,14 -16,27 -25,37 L 356,567 C 262,823 215,952 215,954 215,979 228,992 255,992 264,992 276,990 289,987 310,991 331,999 354,1012 L 381,999 492,748 772,1049 836,1024 860,1049 C 881,1039 901,1025 922,1006 886,937 835,863 770,784 769,783 710,716 594,584 L 774,223 C 774,196 753,168 711,139 L 727,119 C 717,90 699,76 672,76 641,76 570,178 457,381 L 164,-76 C 142,-110 111,-127 72,-127 30,-127 9,-110 8,-76 1,-67 -2,-52 -2,-32 -2,-23 -1,-13 0,-2 Z"/>
  </g>
  <g id="bullet-char-template-10004" transform="scale(0.00048828125,-0.00048828125)">
   <path d="M 285,-33 C 182,-33 111,30 74,156 52,228 41,333 41,471 41,549 55,616 82,672 116,743 169,778 240,778 293,778 328,747 346,684 L 369,508 C 377,444 397,411 428,410 L 1163,1116 C 1174,1127 1196,1133 1229,1133 1271,1133 1292,1118 1292,1087 L 1292,965 C 1292,929 1282,901 1262,881 L 442,47 C 390,-6 338,-33 285,-33 Z"/>
  </g>
  <g id="bullet-char-template-9679" transform="scale(0.00048828125,-0.00048828125)">
   <path d="M 813,0 C 632,0 489,54 383,161 276,268 223,411 223,592 223,773 276,916 383,1023 489,1130 632,1184 813,1184 992,1184 1136,1130 1245,1023 1353,916 1407,772 1407,592 1407,412 1353,268 1245,161 1136,54 992,0 813,0 Z"/>
  </g>
  <g id="bullet-char-template-8226" transform="scale(0.00048828125,-0.00048828125)">
   <path d="M 346,457 C 273,457 209,483 155,535 101,586 74,649 74,723 74,796 101,859 155,911 209,963 273,989 346,989 419,989 480,963 531,910 582,859 608,796 608,723 608,648 583,586 532,535 482,483 420,457 346,457 Z"/>
  </g>
  <g id="bullet-char-template-8211" transform="scale(0.00048828125,-0.00048828125)">
   <path d="M -4,459 L 1135,459 1135,606 -4,606 -4,459 Z"/>
  </g>
  <g id="bullet-char-template-61548" transform="scale(0.00048828125,-0.00048828125)">
   <path d="M 173,740 C 173,903 231,1043 346,1159 462,1274 601,1332 765,1332 928,1332 1067,1274 1183,1159 1299,1043 1357,903 1357,740 1357,577 1299,437 1183,322 1067,206 928,148 765,148 601,148 462,206 346,322 231,437 173,577 173,740 Z"/>
  </g>
 </defs>
 <defs class="TextEmbeddedBitmaps"/>
 <g>
  <g id="id2" class="Master_Slide">
   <g id="bg-id2" class="Background"/>
   <g id="bo-id2" class="BackgroundObjects"/>
  </g>
 </g>
 <g class="SlideGroup">
  <g>
   <g id="container-id1">
    <g id="id1" class="Slide" clip-path="url(#presentation_clip_path)">
     <g class="Page">
      <g class="com.sun.star.drawing.PolyPolygonShape">
       <g id="id3">
        <rect class="BoundingBox" stroke="none" fill="none" x="11793" y="6682" width="9746" height="9216"/>
       </g>
      </g>
      <g class="com.sun.star.drawing.ClosedBezierShape">
       <g id="id4">
        <rect class="BoundingBox" stroke="none" fill="none" x="11543" y="6433" width="10244" height="9714"/>
        <path fill="rgb(0,0,0)" stroke="none" d="M 17934,15711 C 18210,15834 18504,15896 18807,15896 19381,15896 19921,15672 20328,15267 L 21024,14571 C 21354,14240 21536,13801 21536,13332 21536,12865 21354,12425 21024,12095 L 20210,11281 C 19549,10621 18396,10621 17735,11281 L 17407,11609 C 17287,11728 17129,11794 16959,11794 L 16884,11794 C 16714,11794 16555,11728 16436,11608 L 16082,11256 C 15962,11134 15896,10976 15896,10807 15896,10613 15982,10433 16133,10312 L 16427,10077 C 16741,9826 16921,9450 16921,9049 16921,8703 16781,8364 16536,8119 L 15595,7179 C 14933,6518 13781,6518 13119,7179 L 12424,7874 C 12017,8280 11793,8820 11793,9407 11793,9699 11852,9984 11967,10254 12924,12488 14676,14264 16897,15251 L 17934,15711 Z M 12909,9851 C 12849,9709 12818,9559 12818,9395 12818,9094 12936,8813 13148,8600 L 13844,7904 C 13982,7767 14163,7692 14357,7692 14551,7692 14732,7767 14870,7904 L 15811,8845 C 15865,8899 15896,8973 15896,9049 15896,9138 15856,9220 15787,9275 L 15493,9510 C 15097,9827 14870,10299 14870,10807 14870,11249 15042,11666 15356,11980 L 15710,12333 C 16023,12647 16440,12820 16884,12820 L 16959,12820 C 17402,12820 17819,12647 18132,12335 L 18460,12007 C 18734,11732 19211,11732 19485,12007 L 20299,12820 C 20436,12957 20511,13138 20511,13332 20511,13526 20436,13708 20299,13845 L 19603,14541 C 19278,14866 18770,14961 18351,14774 L 17315,14314 C 15330,13431 13766,11846 12909,9851 Z"/>
        <path fill="none" stroke="rgb(0,0,0)" stroke-width="500" stroke-linejoin="round" d="M 17934,15711 C 18210,15834 18504,15896 18807,15896 19381,15896 19921,15672 20328,15267 L 21024,14571 C 21354,14240 21536,13801 21536,13332 21536,12865 21354,12425 21024,12095 L 20210,11281 C 19549,10621 18396,10621 17735,11281 L 17407,11609 C 17287,11728 17129,11794 16959,11794 L 16884,11794 C 16714,11794 16555,11728 16436,11608 L 16082,11256 C 15962,11134 15896,10976 15896,10807 15896,10613 15982,10433 16133,10312 L 16427,10077 C 16741,9826 16921,9450 16921,9049 16921,8703 16781,8364 16536,8119 L 15595,7179 C 14933,6518 13781,6518 13119,7179 L 12424,7874 C 12017,8280 11793,8820 11793,9407 11793,9699 11852,9984 11967,10254 12924,12488 14676,14264 16897,15251 L 17934,15711 Z"/>
        <path fill="none" stroke="rgb(0,0,0)" stroke-width="500" stroke-linejoin="round" d="M 12909,9851 C 12849,9709 12818,9559 12818,9395 12818,9094 12936,8813 13148,8600 L 13844,7904 C 13982,7767 14163,7692 14357,7692 14551,7692 14732,7767 14870,7904 L 15811,8845 C 15865,8899 15896,8973 15896,9049 15896,9138 15856,9220 15787,9275 L 15493,9510 C 15097,9827 14870,10299 14870,10807 14870,11249 15042,11666 15356,11980 L 15710,12333 C 16023,12647 16440,12820 16884,12820 L 16959,12820 C 17402,12820 17819,12647 18132,12335 L 18460,12007 C 18734,11732 19211,11732 19485,12007 L 20299,12820 C 20436,12957 20511,13138 20511,13332 20511,13526 20436,13708 20299,13845 L 19603,14541 C 19278,14866 18770,14961 18351,14774 L 17315,14314 C 15330,13431 13766,11846 12909,9851 Z"/>
       </g>
      </g>
      <g class="com.sun.star.drawing.PolyPolygonShape">
       <g id="id5">
        <rect class="BoundingBox" stroke="none" fill="none" x="8716" y="3588" width="15386" height="15387"/>
       </g>
      </g>
      <g class="com.sun.star.drawing.ClosedBezierShape">
       <g id="id6">
        <rect class="BoundingBox" stroke="none" fill="none" x="8466" y="3338" width="15884" height="15887"/>
        <path fill="rgb(0,0,0)" stroke="none" d="M 24099,11281 C 24099,7039 20649,3589 16408,3589 12166,3589 8716,7039 8716,11281 8716,15523 12166,18974 16408,18974 20649,18974 24099,15523 24099,11281 Z M 9741,11281 C 9741,7606 12733,4614 16408,4614 20083,4614 23073,7606 23073,11281 23073,14957 20083,17947 16408,17947 12733,17947 9741,14957 9741,11281 Z"/>
        <path fill="none" stroke="rgb(0,0,0)" stroke-width="500" stroke-linejoin="round" d="M 24099,11281 C 24099,7039 20649,3589 16408,3589 12166,3589 8716,7039 8716,11281 8716,15523 12166,18974 16408,18974 20649,18974 24099,15523 24099,11281 Z"/>
        <path fill="none" stroke="rgb(0,0,0)" stroke-width="500" stroke-linejoin="round" d="M 9741,11281 C 9741,7606 12733,4614 16408,4614 20083,4614 23073,7606 23073,11281 23073,14957 20083,17947 16408,17947 12733,17947 9741,14957 9741,11281 Z"/>
       </g>
      </g>
      <g class="com.sun.star.drawing.PolyPolygonShape">
       <g id="id7">
        <rect class="BoundingBox" stroke="none" fill="none" x="512" y="512" width="31792" height="31792"/>
       </g>
      </g>
      <g class="com.sun.star.drawing.ClosedBezierShape">
       <g id="id8">
        <rect class="BoundingBox" stroke="none" fill="none" x="262" y="262" width="32291" height="32291"/>
        <path fill="rgb(0,0,0)" stroke="none" d="M 29738,19996 L 23256,19996 24849,17984 C 26349,16090 27174,13717 27174,11280 27174,5342 22344,512 16406,512 10470,512 5640,5342 5640,11280 L 5640,11301 C 5640,13717 6465,16090 7965,17984 L 9557,19996 3076,19996 C 1662,19996 512,21146 512,22559 L 512,29738 C 512,31152 1662,32302 3076,32302 L 29738,32302 C 31152,32302 32302,31152 32302,29738 L 32302,22559 C 32302,21146 31152,19996 29738,19996 Z M 31275,22559 L 31275,24098 27174,24098 27174,21021 29738,21021 C 30585,21021 31275,21711 31275,22559 Z M 28199,31275 L 26149,31275 26149,27174 17556,27174 C 17584,27145 17615,27122 17640,27090 L 19198,25123 24098,25123 24098,21021 26149,21021 26149,25123 31275,25123 31275,27174 28199,27174 28199,31275 Z M 4613,21021 L 6665,21021 6665,25123 13616,25123 15172,27090 C 15197,27122 15230,27145 15256,27174 L 9741,27174 9741,31275 7690,31275 7690,27174 1537,27174 1537,25123 4613,25123 4613,21021 Z M 10766,28199 L 14356,28199 14356,31275 10766,31275 10766,28199 Z M 15381,27299 C 15665,27545 16024,27687 16406,27687 16790,27687 17149,27545 17433,27299 L 17433,31275 15381,31275 15381,27299 Z M 25123,31275 L 18458,31275 18458,28199 25123,28199 25123,31275 Z M 23073,21021 L 23073,24098 20009,24098 22445,21021 23073,21021 Z M 6665,11301 L 6665,11280 C 6665,5907 11035,1537 16406,1537 21779,1537 26149,5907 26149,11301 26149,13487 25402,15635 24044,17348 L 16835,26454 C 16626,26718 16186,26718 15977,26454 L 8769,17348 C 7412,15634 6665,13486 6665,11301 Z M 12804,24098 L 7690,24098 7690,21021 10369,21021 12804,24098 Z M 3076,21021 L 3588,21021 3588,24098 1537,24098 1537,22559 C 1537,21711 2227,21021 3076,21021 Z M 1537,29738 L 1537,28199 6665,28199 6665,31275 3076,31275 C 2227,31275 1537,30585 1537,29738 Z M 29738,31275 L 29225,31275 29225,28199 31275,28199 31275,29738 C 31275,30585 30585,31275 29738,31275 Z"/>
        <path fill="none" stroke="rgb(0,0,0)" stroke-width="500" stroke-linejoin="round" d="M 29738,19996 L 23256,19996 24849,17984 C 26349,16090 27174,13717 27174,11280 27174,5342 22344,512 16406,512 10470,512 5640,5342 5640,11280 L 5640,11301 C 5640,13717 6465,16090 7965,17984 L 9557,19996 3076,19996 C 1662,19996 512,21146 512,22559 L 512,29738 C 512,31152 1662,32302 3076,32302 L 29738,32302 C 31152,32302 32302,31152 32302,29738 L 32302,22559 C 32302,21146 31152,19996 29738,19996 Z"/>
        <path fill="none" stroke="rgb(0,0,0)" stroke-width="500" stroke-linejoin="round" d="M 31275,22559 L 31275,24098 27174,24098 27174,21021 29738,21021 C 30585,21021 31275,21711 31275,22559 Z"/>
        <path fill="none" stroke="rgb(0,0,0)" stroke-width="500" stroke-linejoin="round" d="M 28199,31275 L 26149,31275 26149,27174 17556,27174 C 17584,27145 17615,27122 17640,27090 L 19198,25123 24098,25123 24098,21021 26149,21021 26149,25123 31275,25123 31275,27174 28199,27174 28199,31275 Z"/>
        <path fill="none" stroke="rgb(0,0,0)" stroke-width="500" stroke-linejoin="round" d="M 4613,21021 L 6665,21021 6665,25123 13616,25123 15172,27090 C 15197,27122 15230,27145 15256,27174 L 9741,27174 9741,31275 7690,31275 7690,27174 1537,27174 1537,25123 4613,25123 4613,21021 Z"/>
        <path fill="none" stroke="rgb(0,0,0)" stroke-width="500" stroke-linejoin="round" d="M 10766,28199 L 14356,28199 14356,31275 10766,31275 10766,28199 Z"/>
        <path fill="none" stroke="rgb(0,0,0)" stroke-width="500" stroke-linejoin="round" d="M 15381,27299 C 15665,27545 16024,27687 16406,27687 16790,27687 17149,27545 17433,27299 L 17433,31275 15381,31275 15381,27299 Z"/>
        <path fill="none" stroke="rgb(0,0,0)" stroke-width="500" stroke-linejoin="round" d="M 25123,31275 L 18458,31275 18458,28199 25123,28199 25123,31275 Z"/>
        <path fill="none" stroke="rgb(0,0,0)" stroke-width="500" stroke-linejoin="round" d="M 23073,21021 L 23073,24098 20009,24098 22445,21021 23073,21021 Z"/>
        <path fill="none" stroke="rgb(0,0,0)" stroke-width="500" stroke-linejoin="round" d="M 6665,11301 L 6665,11280 C 6665,5907 11035,1537 16406,1537 21779,1537 26149,5907 26149,11301 26149,13487 25402,15635 24044,17348 L 16835,26454 C 16626,26718 16186,26718 15977,26454 L 8769,17348 C 7412,15634 6665,13486 6665,11301 Z"/>
        <path fill="none" stroke="rgb(0,0,0)" stroke-width="500" stroke-linejoin="round" d="M 12804,24098 L 7690,24098 7690,21021 10369,21021 12804,24098 Z"/>
        <path fill="none" stroke="rgb(0,0,0)" stroke-width="500" stroke-linejoin="round" d="M 3076,21021 L 3588,21021 3588,24098 1537,24098 1537,22559 C 1537,21711 2227,21021 3076,21021 Z"/>
        <path fill="none" stroke="rgb(0,0,0)" stroke-width="500" stroke-linejoin="round" d="M 1537,29738 L 1537,28199 6665,28199 6665,31275 3076,31275 C 2227,31275 1537,30585 1537,29738 Z"/>
        <path fill="none" stroke="rgb(0,0,0)" stroke-width="500" stroke-linejoin="round" d="M 29738,31275 L 29225,31275 29225,28199 31275,28199 31275,29738 C 31275,30585 30585,31275 29738,31275 Z"/>
       </g>
      </g>
     </g>
    </g>
   </g>
  </g>
 </g>
</svg>