<?xml version="1.0" encoding="UTF-8"?>
<!DOCTYPE svg PUBLIC "-//W3C//DTD SVG 1.1//EN" "http://www.w3.org/Graphics/SVG/1.1/DTD/svg11.dtd">
<svg version="1.2" width="206.25mm" height="206.25mm" viewBox="0 0 20625 20625" preserveAspectRatio="xMidYMid" fill-rule="evenodd" stroke-width="28.222" stroke-linejoin="round" xmlns="http://www.w3.org/2000/svg" xmlns:ooo="http://xml.openoffice.org/svg/export" xmlns:xlink="http://www.w3.org/1999/xlink" xmlns:presentation="http://sun.com/xmlns/staroffice/presentation" xmlns:smil="http://www.w3.org/2001/SMIL20/" xmlns:anim="urn:oasis:names:tc:opendocument:xmlns:animation:1.0" xml:space="preserve">
 <defs class="ClipPathGroup">
  <clipPath id="presentation_clip_path" clipPathUnits="userSpaceOnUse">
   <rect x="0" y="0" width="20625" height="20625"/>
  </clipPath>
  <clipPath id="presentation_clip_path_shrink" clipPathUnits="userSpaceOnUse">
   <rect x="20" y="20" width="20584" height="20584"/>
  </clipPath>
 </defs>
 <defs class="TextShapeIndex">
  <g ooo:slide="id1" ooo:id-list="id3 id4 id5 id6 id7 id8 id9 id10 id11 id12 id13 id14 id15 id16 id17 id18 id19 id20 id21 id22"/>
 </defs>
 <defs class="EmbeddedBulletChars">
  <g id="bullet-char-template-57356" transform="scale(0.00048828125,-0.00048828125)">
   <path d="M 580,1141 L 1163,571 580,0 -4,571 580,1141 Z"/>
  </g>
  <g id="bullet-char-template-57354" transform="scale(0.00048828125,-0.00048828125)">
   <path d="M 8,1128 L 1137,1128 1137,0 8,0 8,1128 Z"/>
  </g>
  <g id="bullet-char-template-10146" transform="scale(0.00048828125,-0.00048828125)">
   <path d="M 174,0 L 602,739 174,1481 1456,739 174,0 Z M 1358,739 L 309,1346 659,739 1358,739 Z"/>
  </g>
  <g id="bullet-char-template-10132" transform="scale(0.00048828125,-0.00048828125)">
   <path d="M 2015,739 L 1276,0 717,0 1260,543 174,543 174,936 1260,936 717,1481 1274,1481 2015,739 Z"/>
  </g>
  <g id="bullet-char-template-10007" transform="scale(0.00048828125,-0.00048828125)">
   <path d="M 0,-2 C -7,14 -16,27 -25,37 L 356,567 C 262,823 215,952 215,954 215,979 228,992 255,992 264,992 276,990 289,987 310,991 331,999 354,1012 L 381,999 492,748 772,1049 836,1024 860,1049 C 881,1039 901,1025 922,1006 886,937 835,863 770,784 769,783 710,716 594,584 L 774,223 C 774,196 753,168 711,139 L 727,119 C 717,90 699,76 672,76 641,76 570,178 457,381 L 164,-76 C 142,-110 111,-127 72,-127 30,-127 9,-110 8,-76 1,-67 -2,-52 -2,-32 -2,-23 -1,-13 0,-2 Z"/>
  </g>
  <g id="bullet-char-template-10004" transform="scale(0.00048828125,-0.00048828125)">
   <path d="M 285,-33 C 182,-33 111,30 74,156 52,228 41,333 41,471 41,549 55,616 82,672 116,743 169,778 240,778 293,778 328,747 346,684 L 369,508 C 377,444 397,411 428,410 L 1163,1116 C 1174,1127 1196,1133 1229,1133 1271,1133 1292,1118 1292,1087 L 1292,965 C 1292,929 1282,901 1262,881 L 442,47 C 390,-6 338,-33 285,-33 Z"/>
  </g>
  <g id="bullet-char-template-9679" transform="scale(0.00048828125,-0.00048828125)">
   <path d="M 813,0 C 632,0 489,54 383,161 276,268 223,411 223,592 223,773 276,916 383,1023 489,1130 632,1184 813,1184 992,1184 1136,1130 1245,1023 1353,916 1407,772 1407,592 1407,412 1353,268 1245,161 1136,54 992,0 813,0 Z"/>
  </g>
  <g id="bullet-char-template-8226" transform="scale(0.00048828125,-0.00048828125)">
   <path d="M 346,457 C 273,457 209,483 155,535 101,586 74,649 74,723 74,796 101,859 155,911 209,963 273,989 346,989 419,989 480,963 531,910 582,859 608,796 608,723 608,648 583,586 532,535 482,483 420,457 346,457 Z"/>
  </g>
  <g id="bullet-char-template-8211" transform="scale(0.00048828125,-0.00048828125)">
   <path d="M -4,459 L 1135,459 1135,606 -4,606 -4,459 Z"/>
  </g>
  <g id="bullet-char-template-61548" transform="scale(0.00048828125,-0.00048828125)">
   <path d="M 173,740 C 173,903 231,1043 346,1159 462,1274 601,1332 765,1332 928,1332 1067,1274 1183,1159 1299,1043 1357,903 1357,740 1357,577 1299,437 1183,322 1067,206 928,148 765,148 601,148 462,206 346,322 231,437 173,577 173,740 Z"/>
  </g>
 </defs>
 <defs class="TextEmbeddedBitmaps"/>
 <g>
  <g id="id2" class="Master_Slide">
   <g id="bg-id2" class="Background"/>
   <g id="bo-id2" class="BackgroundObjects"/>
  </g>
 </g>
 <g class="SlideGroup">
  <g>
   <g id="container-id1">
    <g id="id1" class="Slide" clip-path="url(#presentation_clip_path)">
     <g class="Page">
      <g class="com.sun.star.drawing.PolyPolygonShape">
       <g id="id3">
        <rect class="BoundingBox" stroke="none" fill="none" x="2863" y="4885" width="17016" height="15368"/>
       </g>
      </g>
      <g class="com.sun.star.drawing.PolyPolygonShape">
       <g id="id4">
        <rect class="BoundingBox" stroke="none" fill="none" x="2550" y="4573" width="17638" height="15992"/>
       </g>
      </g>
      <g class="com.sun.star.drawing.ClosedBezierShape">
       <g id="id5">
        <rect class="BoundingBox" stroke="none" fill="none" x="2712" y="4734" width="17313" height="15667"/>
        <path fill="rgb(0,0,0)" stroke="none" d="M 12192,4885 C 12076,4885 11959,4889 11845,4893 L 11875,5554 C 11886,5554 11896,5553 11907,5553 L 11907,7315 12570,7315 12570,5558 C 16159,5748 19040,8648 19203,12245 L 17499,12245 17499,12907 19203,12907 C 19031,16496 16153,19387 12570,19577 L 12570,17837 11907,17837 11907,19581 C 8305,19437 5392,16565 5183,12977 L 6402,14196 6869,13728 4867,11723 2863,13728 3331,14196 4523,13003 C 4749,17037 8102,20250 12192,20250 16426,20250 19874,16805 19874,12568 19874,8330 16426,4885 12192,4885 Z"/>
        <path fill="none" stroke="rgb(0,0,0)" stroke-width="300" stroke-linejoin="round" d="M 12192,4885 C 12076,4885 11959,4889 11845,4893 L 11875,5554 C 11886,5554 11896,5553 11907,5553 L 11907,7315 12570,7315 12570,5558 C 16159,5748 19040,8648 19203,12245 L 17499,12245 17499,12907 19203,12907 C 19031,16496 16153,19387 12570,19577 L 12570,17837 11907,17837 11907,19581 C 8305,19437 5392,16565 5183,12977 L 6402,14196 6869,13728 4867,11723 2863,13728 3331,14196 4523,13003 C 4749,17037 8102,20250 12192,20250 16426,20250 19874,16805 19874,12568 19874,8330 16426,4885 12192,4885 Z"/>
       </g>
      </g>
      <g class="com.sun.star.drawing.PolyPolygonShape">
       <g id="id6">
        <rect class="BoundingBox" stroke="none" fill="none" x="10948" y="8548" width="5578" height="5334"/>
       </g>
      </g>
      <g class="com.sun.star.drawing.PolyPolygonShape">
       <g id="id7">
        <rect class="BoundingBox" stroke="none" fill="none" x="10635" y="8235" width="6199" height="5957"/>
       </g>
      </g>
      <g class="com.sun.star.drawing.ClosedBezierShape">
       <g id="id8">
        <rect class="BoundingBox" stroke="none" fill="none" x="10798" y="8398" width="5873" height="5631"/>
        <path fill="rgb(0,0,0)" stroke="none" d="M 12239,13878 C 12823,13878 13320,13488 13477,12953 L 16520,12953 16520,12290 13496,12290 C 13388,11829 13030,11462 12573,11340 L 12573,8548 11912,8548 11912,11339 C 11358,11482 10948,11987 10948,12588 10948,13299 11528,13878 12239,13878 Z M 11912,12050 C 12008,11991 12121,11957 12239,11957 12363,11957 12477,11994 12573,12054 12666,12114 12742,12194 12795,12290 12842,12379 12870,12479 12870,12588 12870,12724 12826,12850 12751,12953 12636,13113 12451,13215 12239,13215 11892,13215 11609,12934 11609,12588 11609,12359 11731,12160 11912,12050 Z"/>
        <path fill="none" stroke="rgb(0,0,0)" stroke-width="300" stroke-linejoin="round" d="M 12239,13878 C 12823,13878 13320,13488 13477,12953 L 16520,12953 16520,12290 13496,12290 C 13388,11829 13030,11462 12573,11340 L 12573,8548 11912,8548 11912,11339 C 11358,11482 10948,11987 10948,12588 10948,13299 11528,13878 12239,13878 Z"/>
        <path fill="none" stroke="rgb(0,0,0)" stroke-width="300" stroke-linejoin="round" d="M 11912,12050 C 12008,11991 12121,11957 12239,11957 12363,11957 12477,11994 12573,12054 12666,12114 12742,12194 12795,12290 12842,12379 12870,12479 12870,12588 12870,12724 12826,12850 12751,12953 12636,13113 12451,13215 12239,13215 11892,13215 11609,12934 11609,12588 11609,12359 11731,12160 11912,12050 Z"/>
       </g>
      </g>
      <g class="com.sun.star.drawing.PolyPolygonShape">
       <g id="id9">
        <rect class="BoundingBox" stroke="none" fill="none" x="1256" y="3983" width="8836" height="6994"/>
       </g>
      </g>
      <g class="com.sun.star.drawing.PolyPolygonShape">
       <g id="id10">
        <rect class="BoundingBox" stroke="none" fill="none" x="944" y="3670" width="9461" height="7618"/>
       </g>
      </g>
      <g class="com.sun.star.drawing.ClosedBezierShape">
       <g id="id11">
        <rect class="BoundingBox" stroke="none" fill="none" x="1106" y="3833" width="9133" height="7292"/>
        <path fill="rgb(0,0,0)" stroke="none" d="M 7628,10974 C 8984,10974 10088,9871 10088,8514 10088,7716 9694,6962 9036,6501 8552,6161 8114,5693 7735,5109 7278,4403 6508,3983 5671,3983 4836,3983 4065,4403 3609,5109 3230,5693 2792,6161 2307,6501 1650,6962 1256,7716 1256,8514 1256,9871 2360,10974 3716,10974 L 7628,10974 Z M 1917,8514 C 1917,7931 2206,7381 2687,7042 3242,6652 3738,6125 4163,5469 4498,4953 5061,4644 5671,4644 6283,4644 6845,4953 7180,5469 7604,6125 8102,6652 8654,7042 9138,7381 9426,7931 9426,8514 9426,9505 8619,10311 7628,10311 L 3716,10311 C 2724,10311 1917,9505 1917,8514 Z"/>
        <path fill="none" stroke="rgb(0,0,0)" stroke-width="300" stroke-linejoin="round" d="M 7628,10974 C 8984,10974 10088,9871 10088,8514 10088,7716 9694,6962 9036,6501 8552,6161 8114,5693 7735,5109 7278,4403 6508,3983 5671,3983 4836,3983 4065,4403 3609,5109 3230,5693 2792,6161 2307,6501 1650,6962 1256,7716 1256,8514 1256,9871 2360,10974 3716,10974 L 7628,10974 Z"/>
        <path fill="none" stroke="rgb(0,0,0)" stroke-width="300" stroke-linejoin="round" d="M 1917,8514 C 1917,7931 2206,7381 2687,7042 3242,6652 3738,6125 4163,5469 4498,4953 5061,4644 5671,4644 6283,4644 6845,4953 7180,5469 7604,6125 8102,6652 8654,7042 9138,7381 9426,7931 9426,8514 9426,9505 8619,10311 7628,10311 L 3716,10311 C 2724,10311 1917,9505 1917,8514 Z"/>
       </g>
      </g>
      <g class="com.sun.star.drawing.PolyPolygonShape">
       <g id="id12">
        <rect class="BoundingBox" stroke="none" fill="none" x="374" y="2600" width="2274" height="3201"/>
       </g>
      </g>
      <g class="com.sun.star.drawing.ClosedBezierShape">
       <g id="id13">
        <rect class="BoundingBox" stroke="none" fill="none" x="224" y="2450" width="2572" height="3497"/>
        <path fill="rgb(0,0,0)" stroke="none" d="M 2645,4660 L 2645,3736 C 2645,3111 2135,2601 1510,2601 884,2601 374,3111 374,3736 L 374,4660 C 374,5286 884,5796 1510,5796 2135,5796 2645,5286 2645,4660 Z M 1037,4660 L 1037,3736 C 1037,3475 1248,3264 1510,3264 1771,3264 1982,3475 1982,3736 L 1982,4660 C 1982,4919 1771,5133 1510,5133 1248,5133 1037,4919 1037,4660 Z"/>
        <path fill="none" stroke="rgb(0,0,0)" stroke-width="300" stroke-linejoin="round" d="M 2645,4660 L 2645,3736 C 2645,3111 2135,2601 1510,2601 884,2601 374,3111 374,3736 L 374,4660 C 374,5286 884,5796 1510,5796 2135,5796 2645,5286 2645,4660 Z"/>
        <path fill="none" stroke="rgb(0,0,0)" stroke-width="300" stroke-linejoin="round" d="M 1037,4660 L 1037,3736 C 1037,3475 1248,3264 1510,3264 1771,3264 1982,3475 1982,3736 L 1982,4660 C 1982,4919 1771,5133 1510,5133 1248,5133 1037,4919 1037,4660 Z"/>
       </g>
      </g>
      <g class="com.sun.star.drawing.PolyPolygonShape">
       <g id="id14">
        <rect class="BoundingBox" stroke="none" fill="none" x="8654" y="2600" width="2274" height="3201"/>
       </g>
      </g>
      <g class="com.sun.star.drawing.PolyPolygonShape">
       <g id="id15">
        <rect class="BoundingBox" stroke="none" fill="none" x="8341" y="2289" width="2899" height="3822"/>
       </g>
      </g>
      <g class="com.sun.star.drawing.ClosedBezierShape">
       <g id="id16">
        <rect class="BoundingBox" stroke="none" fill="none" x="8503" y="2450" width="2573" height="3497"/>
        <path fill="rgb(0,0,0)" stroke="none" d="M 9790,5796 C 10415,5796 10925,5286 10925,4660 L 10925,3736 C 10925,3111 10415,2601 9790,2601 9164,2601 8654,3111 8654,3736 L 8654,4660 C 8654,5286 9164,5796 9790,5796 Z M 9317,3736 C 9317,3475 9528,3264 9790,3264 10051,3264 10262,3475 10262,3736 L 10262,4660 C 10262,4919 10051,5133 9790,5133 9528,5133 9317,4919 9317,4660 L 9317,3736 Z"/>
        <path fill="none" stroke="rgb(0,0,0)" stroke-width="300" stroke-linejoin="round" d="M 9790,5796 C 10415,5796 10925,5286 10925,4660 L 10925,3736 C 10925,3111 10415,2601 9790,2601 9164,2601 8654,3111 8654,3736 L 8654,4660 C 8654,5286 9164,5796 9790,5796 Z"/>
        <path fill="none" stroke="rgb(0,0,0)" stroke-width="300" stroke-linejoin="round" d="M 9317,3736 C 9317,3475 9528,3264 9790,3264 10051,3264 10262,3475 10262,3736 L 10262,4660 C 10262,4919 10051,5133 9790,5133 9528,5133 9317,4919 9317,4660 L 9317,3736 Z"/>
       </g>
      </g>
      <g class="com.sun.star.drawing.PolyPolygonShape">
       <g id="id17">
        <rect class="BoundingBox" stroke="none" fill="none" x="2984" y="371" width="2276" height="3198"/>
       </g>
      </g>
      <g class="com.sun.star.drawing.PolyPolygonShape">
       <g id="id18">
        <rect class="BoundingBox" stroke="none" fill="none" x="2672" y="58" width="2899" height="3823"/>
       </g>
      </g>
      <g class="com.sun.star.drawing.ClosedBezierShape">
       <g id="id19">
        <rect class="BoundingBox" stroke="none" fill="none" x="2835" y="220" width="2572" height="3497"/>
        <path fill="rgb(0,0,0)" stroke="none" d="M 4121,3566 C 4746,3566 5256,3056 5256,2430 L 5256,1506 C 5256,881 4746,371 4121,371 3495,371 2985,881 2985,1506 L 2985,2430 C 2985,3056 3495,3566 4121,3566 Z M 3648,1506 C 3648,1245 3859,1034 4121,1034 4382,1034 4593,1245 4593,1506 L 4593,2430 C 4593,2689 4382,2903 4121,2903 3859,2903 3648,2689 3648,2430 L 3648,1506 Z"/>
        <path fill="none" stroke="rgb(0,0,0)" stroke-width="300" stroke-linejoin="round" d="M 4121,3566 C 4746,3566 5256,3056 5256,2430 L 5256,1506 C 5256,881 4746,371 4121,371 3495,371 2985,881 2985,1506 L 2985,2430 C 2985,3056 3495,3566 4121,3566 Z"/>
        <path fill="none" stroke="rgb(0,0,0)" stroke-width="300" stroke-linejoin="round" d="M 3648,1506 C 3648,1245 3859,1034 4121,1034 4382,1034 4593,1245 4593,1506 L 4593,2430 C 4593,2689 4382,2903 4121,2903 3859,2903 3648,2689 3648,2430 L 3648,1506 Z"/>
       </g>
      </g>
      <g class="com.sun.star.drawing.PolyPolygonShape">
       <g id="id20">
        <rect class="BoundingBox" stroke="none" fill="none" x="6043" y="371" width="2274" height="3198"/>
       </g>
      </g>
      <g class="com.sun.star.drawing.PolyPolygonShape">
       <g id="id21">
        <rect class="BoundingBox" stroke="none" fill="none" x="5729" y="58" width="2899" height="3823"/>
       </g>
      </g>
      <g class="com.sun.star.drawing.ClosedBezierShape">
       <g id="id22">
        <rect class="BoundingBox" stroke="none" fill="none" x="5893" y="220" width="2572" height="3497"/>
        <path fill="rgb(0,0,0)" stroke="none" d="M 7179,3566 C 7804,3566 8314,3056 8314,2430 L 8314,1506 C 8314,881 7804,371 7179,371 6553,371 6043,881 6043,1506 L 6043,2430 C 6043,3056 6553,3566 7179,3566 Z M 6706,1506 C 6706,1245 6917,1034 7179,1034 7440,1034 7651,1245 7651,1506 L 7651,2430 C 7651,2689 7440,2903 7179,2903 6917,2903 6706,2689 6706,2430 L 6706,1506 Z"/>
        <path fill="none" stroke="rgb(0,0,0)" stroke-width="300" stroke-linejoin="round" d="M 7179,3566 C 7804,3566 8314,3056 8314,2430 L 8314,1506 C 8314,881 7804,371 7179,371 6553,371 6043,881 6043,1506 L 6043,2430 C 6043,3056 6553,3566 7179,3566 Z"/>
        <path fill="none" stroke="rgb(0,0,0)" stroke-width="300" stroke-linejoin="round" d="M 6706,1506 C 6706,1245 6917,1034 7179,1034 7440,1034 7651,1245 7651,1506 L 7651,2430 C 7651,2689 7440,2903 7179,2903 6917,2903 6706,2689 6706,2430 L 6706,1506 Z"/>
       </g>
      </g>
     </g>
    </g>
   </g>
  </g>
 </g>
</svg>