<?xml version="1.0" encoding="UTF-8"?>
<!DOCTYPE svg PUBLIC "-//W3C//DTD SVG 1.1//EN" "http://www.w3.org/Graphics/SVG/1.1/DTD/svg11.dtd">
<svg version="1.2" width="898.44mm" height="898.44mm" viewBox="0 0 89844 89844" preserveAspectRatio="xMidYMid" fill-rule="evenodd" stroke-width="28.222" stroke-linejoin="round" xmlns="http://www.w3.org/2000/svg" xmlns:ooo="http://xml.openoffice.org/svg/export" xmlns:xlink="http://www.w3.org/1999/xlink" xmlns:presentation="http://sun.com/xmlns/staroffice/presentation" xmlns:smil="http://www.w3.org/2001/SMIL20/" xmlns:anim="urn:oasis:names:tc:opendocument:xmlns:animation:1.0" xml:space="preserve">
 <defs class="ClipPathGroup">
  <clipPath id="presentation_clip_path" clipPathUnits="userSpaceOnUse">
   <rect x="0" y="0" width="89844" height="89844"/>
  </clipPath>
  <clipPath id="presentation_clip_path_shrink" clipPathUnits="userSpaceOnUse">
   <rect x="89" y="89" width="89665" height="89665"/>
  </clipPath>
 </defs>
 <defs class="TextShapeIndex">
  <g ooo:slide="id1" ooo:id-list="id3 id4 id5 id6 id7 id8 id9 id10 id11 id12 id13 id14 id15 id16 id17 id18 id19 id20 id21 id22 id23 id24 id25 id26 id27 id28 id29 id30 id31 id32 id33 id34 id35 id36 id37 id38 id39 id40 id41 id42 id43 id44 id45 id46 id47 id48 id49 id50 id51 id52 id53"/>
 </defs>
 <defs class="EmbeddedBulletChars">
  <g id="bullet-char-template-57356" transform="scale(0.00048828125,-0.00048828125)">
   <path d="M 580,1141 L 1163,571 580,0 -4,571 580,1141 Z"/>
  </g>
  <g id="bullet-char-template-57354" transform="scale(0.00048828125,-0.00048828125)">
   <path d="M 8,1128 L 1137,1128 1137,0 8,0 8,1128 Z"/>
  </g>
  <g id="bullet-char-template-10146" transform="scale(0.00048828125,-0.00048828125)">
   <path d="M 174,0 L 602,739 174,1481 1456,739 174,0 Z M 1358,739 L 309,1346 659,739 1358,739 Z"/>
  </g>
  <g id="bullet-char-template-10132" transform="scale(0.00048828125,-0.00048828125)">
   <path d="M 2015,739 L 1276,0 717,0 1260,543 174,543 174,936 1260,936 717,1481 1274,1481 2015,739 Z"/>
  </g>
  <g id="bullet-char-template-10007" transform="scale(0.00048828125,-0.00048828125)">
   <path d="M 0,-2 C -7,14 -16,27 -25,37 L 356,567 C 262,823 215,952 215,954 215,979 228,992 255,992 264,992 276,990 289,987 310,991 331,999 354,1012 L 381,999 492,748 772,1049 836,1024 860,1049 C 881,1039 901,1025 922,1006 886,937 835,863 770,784 769,783 710,716 594,584 L 774,223 C 774,196 753,168 711,139 L 727,119 C 717,90 699,76 672,76 641,76 570,178 457,381 L 164,-76 C 142,-110 111,-127 72,-127 30,-127 9,-110 8,-76 1,-67 -2,-52 -2,-32 -2,-23 -1,-13 0,-2 Z"/>
  </g>
  <g id="bullet-char-template-10004" transform="scale(0.00048828125,-0.00048828125)">
   <path d="M 285,-33 C 182,-33 111,30 74,156 52,228 41,333 41,471 41,549 55,616 82,672 116,743 169,778 240,778 293,778 328,747 346,684 L 369,508 C 377,444 397,411 428,410 L 1163,1116 C 1174,1127 1196,1133 1229,1133 1271,1133 1292,1118 1292,1087 L 1292,965 C 1292,929 1282,901 1262,881 L 442,47 C 390,-6 338,-33 285,-33 Z"/>
  </g>
  <g id="bullet-char-template-9679" transform="scale(0.00048828125,-0.00048828125)">
   <path d="M 813,0 C 632,0 489,54 383,161 276,268 223,411 223,592 223,773 276,916 383,1023 489,1130 632,1184 813,1184 992,1184 1136,1130 1245,1023 1353,916 1407,772 1407,592 1407,412 1353,268 1245,161 1136,54 992,0 813,0 Z"/>
  </g>
  <g id="bullet-char-template-8226" transform="scale(0.00048828125,-0.00048828125)">
   <path d="M 346,457 C 273,457 209,483 155,535 101,586 74,649 74,723 74,796 101,859 155,911 209,963 273,989 346,989 419,989 480,963 531,910 582,859 608,796 608,723 608,648 583,586 532,535 482,483 420,457 346,457 Z"/>
  </g>
  <g id="bullet-char-template-8211" transform="scale(0.00048828125,-0.00048828125)">
   <path d="M -4,459 L 1135,459 1135,606 -4,606 -4,459 Z"/>
  </g>
  <g id="bullet-char-template-61548" transform="scale(0.00048828125,-0.00048828125)">
   <path d="M 173,740 C 173,903 231,1043 346,1159 462,1274 601,1332 765,1332 928,1332 1067,1274 1183,1159 1299,1043 1357,903 1357,740 1357,577 1299,437 1183,322 1067,206 928,148 765,148 601,148 462,206 346,322 231,437 173,577 173,740 Z"/>
  </g>
 </defs>
 <defs class="TextEmbeddedBitmaps"/>
 <g>
  <g id="id2" class="Master_Slide">
   <g id="bg-id2" class="Background"/>
   <g id="bo-id2" class="BackgroundObjects"/>
  </g>
 </g>
 <g class="SlideGroup">
  <g>
   <g id="container-id1">
    <g id="id1" class="Slide" clip-path="url(#presentation_clip_path)">
     <g class="Page">
      <g class="com.sun.star.drawing.PolyPolygonShape">
       <g id="id3">
        <rect class="BoundingBox" stroke="none" fill="none" x="869" y="479" width="87652" height="87651"/>
       </g>
      </g>
      <g class="com.sun.star.drawing.PolyPolygonShape">
       <g id="id4">
        <rect class="BoundingBox" stroke="none" fill="none" x="813" y="421" width="87753" height="87753"/>
       </g>
      </g>
      <g class="com.sun.star.drawing.PolyPolygonShape">
       <g id="id5">
        <rect class="BoundingBox" stroke="none" fill="none" x="505" y="114" width="88373" height="88373"/>
       </g>
      </g>
      <g class="com.sun.star.drawing.PolyPolygonShape">
       <g id="id6">
        <rect class="BoundingBox" stroke="none" fill="none" x="381" y="-11" width="88617" height="88618"/>
       </g>
      </g>
      <g class="com.sun.star.drawing.PolyPolygonShape">
       <g id="id7">
        <rect class="BoundingBox" stroke="none" fill="none" x="479" y="88" width="88417" height="88417"/>
       </g>
      </g>
      <g class="com.sun.star.drawing.PolyPolygonShape">
       <g id="id8">
        <rect class="BoundingBox" stroke="none" fill="none" x="869" y="479" width="87634" height="87634"/>
       </g>
      </g>
      <g class="com.sun.star.drawing.ClosedBezierShape">
       <g id="id9">
        <rect class="BoundingBox" stroke="none" fill="none" x="869" y="479" width="87633" height="87634"/>
        <path fill="rgb(0,0,0)" stroke="none" d="M 44687,479 C 20524,479 869,20134 869,44297 869,68456 20524,88111 44687,88111 68846,88111 88501,68456 88501,44297 88501,20134 68846,479 44687,479 Z M 44687,84980 C 22252,84980 3995,66731 3995,44297 3995,21862 22252,3605 44687,3605 67122,3605 85370,21862 85370,44297 85370,66731 67122,84980 44687,84980 Z"/>
       </g>
      </g>
      <g class="com.sun.star.drawing.PolyPolygonShape">
       <g id="id10">
        <rect class="BoundingBox" stroke="none" fill="none" x="244" y="-146" width="88884" height="88884"/>
       </g>
      </g>
      <g class="com.sun.star.drawing.ClosedBezierShape">
       <g id="id11">
        <rect class="BoundingBox" stroke="none" fill="none" x="119" y="-271" width="89133" height="89134"/>
        <path fill="none" stroke="rgb(0,0,0)" stroke-width="1500" stroke-linejoin="round" d="M 44687,479 C 20524,479 869,20134 869,44297 869,68456 20524,88111 44687,88111 68846,88111 88501,68456 88501,44297 88501,20134 68846,479 44687,479 Z"/>
       </g>
      </g>
      <g class="com.sun.star.drawing.PolyPolygonShape">
       <g id="id12">
        <rect class="BoundingBox" stroke="none" fill="none" x="3369" y="2980" width="82627" height="82626"/>
       </g>
      </g>
      <g class="com.sun.star.drawing.ClosedBezierShape">
       <g id="id13">
        <rect class="BoundingBox" stroke="none" fill="none" x="3245" y="2855" width="82874" height="82875"/>
        <path fill="none" stroke="rgb(0,0,0)" stroke-width="1500" stroke-linejoin="round" d="M 44687,84978 C 22251,84978 3995,66731 3995,44297 3995,21861 22251,3605 44687,3605 67122,3605 85368,21861 85368,44297 85368,66731 67122,84978 44687,84978 Z"/>
       </g>
      </g>
      <g class="com.sun.star.drawing.PolyPolygonShape">
       <g id="id14">
        <rect class="BoundingBox" stroke="none" fill="none" x="501" y="111" width="88373" height="88374"/>
       </g>
      </g>
      <g class="com.sun.star.drawing.PolyPolygonShape">
       <g id="id15">
        <rect class="BoundingBox" stroke="none" fill="none" x="3629" y="3239" width="82117" height="82116"/>
       </g>
      </g>
      <g class="com.sun.star.drawing.PolyPolygonShape">
       <g id="id16">
        <rect class="BoundingBox" stroke="none" fill="none" x="818" y="426" width="87748" height="87748"/>
       </g>
      </g>
      <g class="com.sun.star.drawing.PolyPolygonShape">
       <g id="id17">
        <rect class="BoundingBox" stroke="none" fill="none" x="813" y="420" width="87749" height="87750"/>
       </g>
      </g>
      <g class="com.sun.star.drawing.PolyPolygonShape">
       <g id="id18">
        <rect class="BoundingBox" stroke="none" fill="none" x="3943" y="3551" width="81492" height="81492"/>
       </g>
      </g>
      <g class="com.sun.star.drawing.PolyPolygonShape">
       <g id="id19">
        <rect class="BoundingBox" stroke="none" fill="none" x="3943" y="3551" width="81487" height="81487"/>
       </g>
      </g>
      <g class="com.sun.star.drawing.PolyPolygonShape">
       <g id="id20">
        <rect class="BoundingBox" stroke="none" fill="none" x="21180" y="47409" width="47023" height="25063"/>
       </g>
      </g>
      <g class="com.sun.star.drawing.PolyPolygonShape">
       <g id="id21">
        <rect class="BoundingBox" stroke="none" fill="none" x="21130" y="47356" width="47129" height="25173"/>
       </g>
      </g>
      <g class="com.sun.star.drawing.PolyPolygonShape">
       <g id="id22">
        <rect class="BoundingBox" stroke="none" fill="none" x="20825" y="47044" width="47747" height="25787"/>
       </g>
      </g>
      <g class="com.sun.star.drawing.PolyPolygonShape">
       <g id="id23">
        <rect class="BoundingBox" stroke="none" fill="none" x="20708" y="46922" width="47989" height="26030"/>
       </g>
      </g>
      <g class="com.sun.star.drawing.PolyPolygonShape">
       <g id="id24">
        <rect class="BoundingBox" stroke="none" fill="none" x="20812" y="47018" width="47792" height="25833"/>
       </g>
      </g>
      <g class="com.sun.star.drawing.PolyPolygonShape">
       <g id="id25">
        <rect class="BoundingBox" stroke="none" fill="none" x="21208" y="47410" width="47007" height="25049"/>
       </g>
      </g>
      <g class="com.sun.star.drawing.ClosedBezierShape">
       <g id="id26">
        <rect class="BoundingBox" stroke="none" fill="none" x="21212" y="47410" width="47005" height="25048"/>
        <path fill="rgb(0,0,0)" stroke="none" d="M 66626,47410 L 22803,47410 C 21988,47410 21303,48045 21241,48864 21210,49274 20601,58932 27029,65837 31120,70230 37066,72457 44714,72457 52360,72457 58308,70230 62399,65837 68829,58932 68218,49274 68188,48864 68131,48045 67447,47410 66626,47410 Z M 60093,63719 C 56617,67438 51443,69321 44714,69321 37988,69321 32814,67438 29335,63719 25195,59283 24467,53270 24366,50536 L 65066,50536 C 64963,53270 64236,59283 60093,63719 Z"/>
       </g>
      </g>
      <g class="com.sun.star.drawing.PolyPolygonShape">
       <g id="id27">
        <rect class="BoundingBox" stroke="none" fill="none" x="20583" y="46784" width="48257" height="26300"/>
       </g>
      </g>
      <g class="com.sun.star.drawing.ClosedBezierShape">
       <g id="id28">
        <rect class="BoundingBox" stroke="none" fill="none" x="20462" y="46660" width="48505" height="26548"/>
        <path fill="none" stroke="rgb(0,0,0)" stroke-width="1500" stroke-linejoin="round" d="M 66626,47410 L 22803,47410 C 21988,47410 21303,48045 21241,48864 21210,49274 20601,58932 27029,65837 31120,70230 37066,72457 44714,72457 52360,72457 58308,70230 62399,65837 68829,58932 68218,49274 68188,48864 68131,48045 67447,47410 66626,47410 Z"/>
       </g>
      </g>
      <g class="com.sun.star.drawing.PolyPolygonShape">
       <g id="id29">
        <rect class="BoundingBox" stroke="none" fill="none" x="23731" y="49911" width="41951" height="20038"/>
       </g>
      </g>
      <g class="com.sun.star.drawing.ClosedBezierShape">
       <g id="id30">
        <rect class="BoundingBox" stroke="none" fill="none" x="23731" y="49911" width="41949" height="20036"/>
        <path fill="none" stroke="rgb(0,0,0)" stroke-width="1250" stroke-linejoin="round" d="M 60083,63719 C 56607,67438 51433,69321 44704,69321 37978,69321 32804,67438 29325,63719 25185,59283 24457,53269 24356,50536 L 65054,50536 C 64953,53269 64226,59283 60083,63719 Z"/>
       </g>
      </g>
      <g class="com.sun.star.drawing.PolyPolygonShape">
       <g id="id31">
        <rect class="BoundingBox" stroke="none" fill="none" x="20830" y="47044" width="47743" height="25787"/>
       </g>
      </g>
      <g class="com.sun.star.drawing.PolyPolygonShape">
       <g id="id32">
        <rect class="BoundingBox" stroke="none" fill="none" x="23979" y="50169" width="41438" height="19527"/>
       </g>
      </g>
      <g class="com.sun.star.drawing.PolyPolygonShape">
       <g id="id33">
        <rect class="BoundingBox" stroke="none" fill="none" x="21986" y="28634" width="15682" height="7862"/>
       </g>
      </g>
      <g class="com.sun.star.drawing.PolyPolygonShape">
       <g id="id34">
        <rect class="BoundingBox" stroke="none" fill="none" x="21935" y="28580" width="15788" height="7963"/>
       </g>
      </g>
      <g class="com.sun.star.drawing.PolyPolygonShape">
       <g id="id35">
        <rect class="BoundingBox" stroke="none" fill="none" x="21622" y="28270" width="16410" height="8581"/>
       </g>
      </g>
      <g class="com.sun.star.drawing.PolyPolygonShape">
       <g id="id36">
        <rect class="BoundingBox" stroke="none" fill="none" x="21501" y="28147" width="16647" height="8822"/>
       </g>
      </g>
      <g class="com.sun.star.drawing.PolyPolygonShape">
       <g id="id37">
        <rect class="BoundingBox" stroke="none" fill="none" x="21600" y="28242" width="16448" height="8624"/>
       </g>
      </g>
      <g class="com.sun.star.drawing.PolyPolygonShape">
       <g id="id38">
        <rect class="BoundingBox" stroke="none" fill="none" x="21366" y="28010" width="16916" height="9091"/>
       </g>
      </g>
      <g class="com.sun.star.drawing.ClosedBezierShape">
       <g id="id39">
        <rect class="BoundingBox" stroke="none" fill="none" x="21990" y="28635" width="15665" height="7839"/>
        <path fill="rgb(0,0,0)" stroke="none" d="M 29816,31771 C 32412,31771 34519,33880 34519,36473 L 37654,36473 C 37654,32148 34136,28635 29816,28635 25504,28635 21991,32148 21991,36473 L 25124,36473 C 25124,33880 27234,31771 29816,31771 Z"/>
       </g>
      </g>
      <g class="com.sun.star.drawing.ClosedBezierShape">
       <g id="id40">
        <rect class="BoundingBox" stroke="none" fill="none" x="21365" y="28010" width="16915" height="9089"/>
        <path fill="none" stroke="rgb(0,0,0)" stroke-width="1250" stroke-linejoin="round" d="M 29816,31771 C 32412,31771 34519,33880 34519,36473 L 37654,36473 C 37654,32148 34136,28635 29816,28635 25504,28635 21991,32148 21991,36473 L 25124,36473 C 25124,33880 27234,31771 29816,31771 Z"/>
       </g>
      </g>
      <g class="com.sun.star.drawing.PolyPolygonShape">
       <g id="id41">
        <rect class="BoundingBox" stroke="none" fill="none" x="21366" y="28010" width="16916" height="9091"/>
       </g>
      </g>
      <g class="com.sun.star.drawing.ClosedBezierShape">
       <g id="id42">
        <rect class="BoundingBox" stroke="none" fill="none" x="21240" y="27885" width="17165" height="9339"/>
        <path fill="none" stroke="rgb(0,0,0)" stroke-width="1500" stroke-linejoin="round" d="M 29816,31771 C 32412,31771 34519,33880 34519,36473 L 37654,36473 C 37654,32148 34136,28635 29816,28635 25504,28635 21991,32148 21991,36473 L 25124,36473 C 25124,33880 27234,31771 29816,31771 Z"/>
       </g>
      </g>
      <g class="com.sun.star.drawing.PolyPolygonShape">
       <g id="id43">
        <rect class="BoundingBox" stroke="none" fill="none" x="21624" y="28267" width="16404" height="8579"/>
       </g>
      </g>
      <g class="com.sun.star.drawing.PolyPolygonShape">
       <g id="id44">
        <rect class="BoundingBox" stroke="none" fill="none" x="21935" y="28580" width="15784" height="7958"/>
       </g>
      </g>
      <g class="com.sun.star.drawing.PolyPolygonShape">
       <g id="id45">
        <rect class="BoundingBox" stroke="none" fill="none" x="51714" y="28634" width="15687" height="7862"/>
       </g>
      </g>
      <g class="com.sun.star.drawing.PolyPolygonShape">
       <g id="id46">
        <rect class="BoundingBox" stroke="none" fill="none" x="51663" y="28580" width="15788" height="7963"/>
       </g>
      </g>
      <g class="com.sun.star.drawing.PolyPolygonShape">
       <g id="id47">
        <rect class="BoundingBox" stroke="none" fill="none" x="51347" y="28270" width="16412" height="8581"/>
       </g>
      </g>
      <g class="com.sun.star.drawing.PolyPolygonShape">
       <g id="id48">
        <rect class="BoundingBox" stroke="none" fill="none" x="51228" y="28147" width="16645" height="8822"/>
       </g>
      </g>
      <g class="com.sun.star.drawing.PolyPolygonShape">
       <g id="id49">
        <rect class="BoundingBox" stroke="none" fill="none" x="51324" y="28242" width="16449" height="8624"/>
       </g>
      </g>
      <g class="com.sun.star.drawing.PolyPolygonShape">
       <g id="id50">
        <rect class="BoundingBox" stroke="none" fill="none" x="51718" y="28635" width="15666" height="7841"/>
       </g>
      </g>
      <g class="com.sun.star.drawing.ClosedBezierShape">
       <g id="id51">
        <rect class="BoundingBox" stroke="none" fill="none" x="51717" y="28635" width="15665" height="7839"/>
        <path fill="rgb(0,0,0)" stroke="none" d="M 59546,31771 C 62137,31771 64246,33880 64246,36473 L 67381,36473 C 67381,32148 63865,28635 59546,28635 55231,28635 51718,32148 51718,36473 L 54852,36473 C 54852,33880 56960,31771 59546,31771 Z"/>
       </g>
      </g>
      <g class="com.sun.star.drawing.PolyPolygonShape">
       <g id="id52">
        <rect class="BoundingBox" stroke="none" fill="none" x="51092" y="28010" width="16916" height="9091"/>
       </g>
      </g>
      <g class="com.sun.star.drawing.ClosedBezierShape">
       <g id="id53">
        <rect class="BoundingBox" stroke="none" fill="none" x="50967" y="27885" width="17165" height="9339"/>
        <path fill="none" stroke="rgb(0,0,0)" stroke-width="1500" stroke-linejoin="round" d="M 59546,31771 C 62137,31771 64246,33880 64246,36473 L 67381,36473 C 67381,32148 63865,28635 59546,28635 55231,28635 51718,32148 51718,36473 L 54852,36473 C 54852,33880 56960,31771 59546,31771 Z"/>
       </g>
      </g>
     </g>
    </g>
   </g>
  </g>
 </g>
</svg>